<svg width="360" height="316" viewBox="0 0 360 316" fill="none" xmlns="http://www.w3.org/2000/svg">
<path fill-rule="evenodd" clip-rule="evenodd" d="M0 1.7989V316H360V5.09181C355.187 7.88228 351.561 11.7969 349.418 15.1411C333.005 4.51332 320.223 15.3742 315.883 22.133C299.155 11.7849 285.241 22.0165 280.375 28.4257C250.706 11.6451 231.453 33.0871 225.535 45.9056C210.11 34.0423 202.669 45.0489 200.366 53.5967H197.85C182.139 38.7029 161.133 46.2835 149.975 53.5967H145.537C132.104 35.8318 114.261 43.223 106.781 49.4016C91.3157 9.12801 58.7799 21.4338 44.4453 32.6209C36.1312 0.825698 16.5938 -2.90367 0 1.7989Z" fill="#2B1C13"/>
</svg>
