<svg width="1517" height="688" viewBox="0 0 1517 688" fill="none" xmlns="http://www.w3.org/2000/svg">
<path fill-rule="evenodd" clip-rule="evenodd" d="M1517 687.53H0L0 4.09143C14.0959 5.9864 27.3842 13.0789 34.8453 29.8133C90.15 -1.34865 211.011 -33.9024 252.017 85.1788C301.027 56.1346 412.266 24.186 465.143 128.745C490.716 112.704 551.721 93.5149 597.649 139.637H612.822C650.968 120.65 722.789 100.969 776.504 139.637H785.106C792.979 117.445 818.42 88.8688 871.16 119.669C891.394 86.389 957.22 30.7209 1058.66 74.2873C1075.29 57.6474 1122.86 31.084 1180.06 57.9499C1194.9 40.4023 1238.6 12.2053 1294.71 39.7973C1315.4 15.2912 1376.46 -21.0141 1455.23 29.8133C1463.95 19.0147 1486.27 2.35058 1517 3.22702V687.53Z" fill="#2B1C13"/>
</svg>
