<svg width="1517" height="688" viewBox="0 0 1517 688" fill="none" xmlns="http://www.w3.org/2000/svg">
<path fill-rule="evenodd" clip-rule="evenodd" d="M1517 687.164H0L0 3.72552C14.0959 5.6205 27.3842 12.713 34.8453 29.4474C90.15 -1.71463 211.011 -34.2683 252.017 84.813C301.027 55.7688 412.266 23.8201 465.143 128.379C490.716 112.339 551.721 93.1489 597.649 139.271H612.822C650.968 120.284 722.789 100.603 776.504 139.271H785.106C792.979 117.079 818.42 88.5028 871.16 119.303C891.394 86.0231 957.22 30.3551 1058.66 73.9213C1075.29 57.2815 1122.86 30.7181 1180.06 57.584C1194.9 40.0365 1238.6 11.8393 1294.71 39.4314C1315.4 14.9253 1376.46 -21.38 1455.23 29.4474C1463.95 18.6487 1486.27 1.9846 1517 2.86106V687.164Z" fill="#F3A451"/>
</svg>
