<svg width="1604" height="689" viewBox="0 0 1604 689" fill="none" xmlns="http://www.w3.org/2000/svg">
<path fill-rule="evenodd" clip-rule="evenodd" d="M1603.68 467.953V0.849121H0.780029V477.642C30.9414 499.687 56.6894 536.897 73.2257 595.427C142.317 545.522 299.134 490.626 373.677 670.286C409.728 642.724 495.729 609.751 560.475 689H581.867C635.643 656.376 736.89 622.559 812.614 689H824.742C835.841 650.869 871.706 601.768 946.055 654.69C974.579 597.507 1067.38 501.855 1210.38 576.713C1233.83 548.121 1300.89 502.479 1381.52 548.641C1402.44 518.49 1464.05 470.04 1543.15 517.45C1554.85 500.555 1575.72 480.395 1603.68 467.953Z" fill="#F3A451"/>
</svg>
