<svg width="1517" height="687" viewBox="0 0 1517 687" fill="none" xmlns="http://www.w3.org/2000/svg">
<path fill-rule="evenodd" clip-rule="evenodd" d="M1517 686.708H0L0 3.27014C14.0959 5.16511 27.3842 12.2577 34.8453 28.9921C90.15 -2.16994 211.011 -34.7236 252.017 84.3575C301.027 55.3133 412.266 23.3647 465.143 127.924C490.716 111.883 551.721 92.6936 597.649 138.816H612.822C650.968 119.829 722.789 100.147 776.504 138.816H785.106C792.979 116.624 818.42 88.0475 871.16 118.848C891.394 85.5677 957.22 29.8996 1058.66 73.466C1075.29 56.8261 1122.86 30.2627 1180.06 57.1286C1194.9 39.581 1238.6 11.384 1294.71 38.976C1315.4 14.47 1376.46 -21.8353 1455.23 28.9921C1463.95 18.1934 1486.27 1.52929 1517 2.40573V686.708Z" fill="#BB7E40"/>
</svg>
