<svg width="59" height="241" viewBox="0 0 59 241" fill="none" xmlns="http://www.w3.org/2000/svg">
<path d="M-85.2063 180.628C-85.3933 180.551 -85.0524 179.209 -84.2469 176.767C-83.641 174.819 -82.5921 171.533 -81.6377 167.974C-80.8727 165.118 -79.9616 161.428 -79.5239 157.646C-79.3527 156.16 -79.2396 154.589 -79.3105 153.034C-79.3737 151.805 -79.5189 150.564 -79.9271 149.483C-80.5248 147.85 -81.3584 146.236 -82.4985 144.86C-83.3127 143.859 -84.3938 142.887 -85.4963 141.684C-86.6805 140.398 -87.714 138.864 -88.426 137.103C-89.4429 134.505 -89.8284 131.786 -89.9693 129.071C-90.1767 125.124 -89.3198 121.165 -87.77 117.416C-85.806 112.632 -83.0118 108.256 -79.8111 103.962C-72.9441 94.7233 -64.9684 86.2686 -55.932 77.5164C-52.2382 73.9388 -48.4669 70.406 -44.864 67.034C-25.9907 49.3494 -7.65624 33.0901 5.47974 21.7004C21.5354 7.87784 31.6771 -0.440759 32.1024 0.0180455C32.1024 0.018045 32.1024 0.0180475 32.1024 0.0180475V0.0180496C32.1032 0.0190272 32.1048 0.0206133 32.1029 0.0187108C32.1013 0.0168083 32.1027 0.0183923 32.1035 0.01937V0.019372V0.0193741C32.5103 0.494701 23.123 9.65891 7.62285 24.0859C-5.39174 36.2855 -22.7057 52.2574 -41.7788 70.3103C-45.3452 73.6899 -49.1262 77.2539 -52.77 80.7818C-61.7387 89.4652 -69.5805 97.6552 -76.3512 106.563C-79.4793 110.69 -82.1576 114.701 -83.9909 118.997C-85.4002 122.324 -86.2419 125.668 -86.112 128.889C-86.0056 131.427 -85.7781 133.743 -85.0079 135.787C-84.5424 137.084 -83.7752 138.285 -82.8693 139.344C-81.948 140.413 -80.8453 141.487 -79.8541 142.772C-78.4915 144.564 -77.5566 146.535 -76.9439 148.472C-76.4579 150.029 -76.3237 151.572 -76.334 152.974C-76.3377 154.758 -76.5394 156.469 -76.8052 158.035C-77.482 162.036 -78.6392 165.736 -79.6399 168.592C-80.9207 172.252 -82.2245 175.248 -83.1613 177.204C-84.3156 179.513 -85.0193 180.705 -85.2064 180.628H-85.2063Z" fill="#8F6032"/>
<path d="M30.8437 3.32708C30.8511 3.32571 30.8588 3.3259 30.8668 3.32759C30.8749 3.33032 30.8833 3.33506 30.8921 3.34182C30.9097 3.35532 30.9287 3.37683 30.9492 3.40629C30.9492 3.40629 30.9492 3.40629 30.9492 3.40629C30.99 3.46503 31.0365 3.55535 31.0885 3.67666C31.1919 3.91782 31.3172 4.28141 31.4635 4.76293C31.7523 5.71325 32.1226 7.12227 32.5671 8.95557C33.4284 12.5074 34.5678 17.6481 35.9313 24.1255C38.4033 35.8692 41.649 52.1808 45.2629 71.2321C48.0781 86.0731 51.2531 103.244 54.3312 120.92C54.8622 123.969 55.3971 127.067 55.9232 130.177C56.4427 133.25 56.946 136.29 57.4305 139.315C57.7684 141.425 58.0959 143.516 58.3986 145.615C58.5076 146.37 58.6134 147.128 58.7111 147.891C58.78 148.428 58.8473 148.981 58.9007 149.553C59.2489 153.506 58.6477 157.358 57.6404 160.88C56.5509 164.745 54.9745 168.377 53.0951 171.712C51.3476 174.832 49.3112 177.751 46.8594 180.298C45.8554 181.344 44.7453 182.336 43.4868 183.192C42.5045 183.882 41.3239 184.484 39.9426 184.807C38.4065 185.139 36.8155 185.245 35.2321 185.077C34.1835 184.978 33.473 184.758 33.0663 184.824C32.9366 184.828 32.7942 184.865 32.6656 184.926C32.4436 185.015 32.184 185.236 31.8686 185.513C30.6133 186.654 29.5611 188.258 28.4555 189.848C28.0299 190.466 27.6345 191.136 27.2462 191.824C26.7503 192.706 26.2813 193.609 25.8295 194.512C24.6629 196.841 23.5872 199.216 22.5936 201.47C19.935 207.504 17.4411 213.711 15.5336 218.476V218.476C12.9839 224.845 10.956 230.012 9.4514 233.698C8.60832 235.763 7.93111 237.365 7.42954 238.455C7.16761 239.024 6.95315 239.455 6.78816 239.739C6.70404 239.884 6.63266 239.991 6.57429 240.06C6.52348 240.087 6.49189 240.11 6.47157 240.126C6.45606 240.132 6.44739 240.138 6.44257 240.142C6.44019 240.144 6.43871 240.145 6.43789 240.147C6.43683 240.148 6.43683 240.148 6.43683 240.148C6.43683 240.148 6.43682 240.148 6.43629 240.148C6.43709 240.145 6.43683 240.143 6.43623 240.14C6.43491 240.133 6.43139 240.124 6.42278 240.109C6.4162 240.085 6.40503 240.047 6.38141 239.995C6.37687 239.904 6.38567 239.776 6.40765 239.61C6.45081 239.283 6.54463 238.811 6.68809 238.2C6.96286 237.03 7.41888 235.351 8.0501 233.207C9.15601 229.451 10.8749 224.011 13.0887 217.567C14.7888 212.618 16.9849 206.443 19.5101 200.171C20.4413 197.857 21.4668 195.404 22.6088 192.955C23.051 192.007 23.5214 191.04 24.032 190.074C24.4266 189.325 24.8597 188.552 25.3581 187.783C26.3864 186.173 27.5654 184.341 29.2031 182.721C29.6399 182.279 30.2024 181.828 30.9187 181.446C31.4841 181.158 32.1042 180.978 32.7538 180.919C34.0297 180.851 34.9772 181.056 35.6317 181.129C36.7399 181.233 37.9025 181.125 39.0649 180.858C39.7149 180.729 40.4074 180.317 41.1679 179.811C42.1041 179.162 42.9789 178.341 43.8446 177.425C45.9575 175.181 47.7376 172.529 49.3349 169.624C51.0266 166.528 52.4364 163.197 53.386 159.701C54.2404 156.503 54.7665 153.176 54.4336 149.978C54.3863 149.493 54.3222 148.992 54.2534 148.472V148.472C54.1566 147.743 54.0506 147.009 53.9405 146.267C53.6341 144.204 53.3032 142.138 52.9614 140.036C52.4715 137.025 51.9667 133.999 51.4483 130.934C50.9247 127.838 50.3927 124.733 49.8708 121.691C46.1247 99.8528 45.0501 93.7833 41.3041 71.9453C38.0227 52.7221 35.3358 36.5466 33.4724 24.5753C32.4547 18.0367 31.694 12.8245 31.2364 9.20006C31.0002 7.32891 30.8446 5.87995 30.776 4.88945V4.88944C30.7413 4.38745 30.7288 4.00305 30.7395 3.74091C30.7449 3.60903 30.7561 3.50808 30.7733 3.43866C30.7819 3.40385 30.792 3.37696 30.8036 3.35808C30.8094 3.34863 30.8156 3.34118 30.8222 3.33574C30.8291 3.33131 30.8362 3.3284 30.8436 3.32704L30.8437 3.32708Z" fill="#8F6032"/>
<path d="M32.1034 0.0194995C33.2877 0.427572 23.8083 31.0568 10.9441 68.3884C-1.92002 105.72 -13.3216 135.687 -14.5058 135.279C-15.69 134.871 -6.21065 104.241 6.6535 66.9099C19.5177 29.5783 30.9192 -0.388572 32.1034 0.0194995Z" fill="#8F6032"/>
<path d="M-81.5846 141.892C-81.4311 141.559 -78.5674 142.499 -73.6368 144.435C-69.4007 145.829 -62.9239 147.738 -55.5163 148.408C-52.1617 148.715 -48.4906 148.781 -44.7219 148.355C-44.7219 148.355 -44.7219 148.355 -44.7219 148.355C-41.167 147.954 -37.4564 147.109 -33.8726 145.633C-30.2737 144.155 -26.7795 142.025 -23.6373 139.273C-19.5366 136.442 -15.861 132.91 -12.6207 128.891C-12.5666 128.824 -12.5127 128.757 -12.4589 128.69C-11.694 131.124 -10.9453 133.51 -10.2055 135.891C-9.69341 141.278 -8.35963 146.392 -6.42969 151.029C-5.0798 154.289 -3.44012 157.298 -1.60309 160.023V160.023C0.717636 163.467 3.35359 166.451 6.05608 168.983C9.81123 172.504 13.7692 175.215 17.2723 177.271C26.4296 182.645 32.813 184.407 32.6655 184.926C32.5181 185.445 25.8507 184.678 15.9213 179.781C12.1169 177.905 7.79993 175.291 3.61981 171.703C0.61454 169.121 -2.33299 166.015 -4.95486 162.355C-7.02779 159.46 -8.88314 156.239 -10.4144 152.724C-12.6034 147.676 -14.1216 142.084 -14.7119 136.163C-14.076 134.091 -13.4322 132.019 -12.7735 129.901C-12.8068 129.98 -12.8403 130.06 -12.8741 130.139C-14.8926 134.89 -17.5067 139.14 -20.7213 142.642C-24.2802 145.69 -28.2338 148.006 -32.306 149.576C-36.3577 151.133 -40.4661 151.951 -44.3544 152.251C-48.4706 152.569 -52.3888 152.336 -55.9194 151.832C-63.7771 150.704 -70.265 148.241 -74.4385 146.31C-79.1628 143.794 -81.7381 142.225 -81.5846 141.892Z" fill="#8F6032"/>
<path d="M-85.6785 115.438C-85.9005 115.104 -82.3468 112.293 -75.9086 107.628C-73.0234 105.748 -69.3825 103.573 -65.1721 101.497C-61.5079 99.6905 -57.1869 97.8483 -52.4228 96.4829C-48.3883 95.3211 -43.7865 94.4492 -38.9412 94.56C-36.7833 94.612 -34.5532 94.8783 -32.3291 95.4423C-30.1977 95.9839 -28.0816 96.8119 -26.0811 97.958C-24.0418 99.1305 -22.1569 100.617 -20.4954 102.364C-18.6739 104.283 -17.1354 106.466 -15.8649 108.813C-13.2611 114.599 -12.2976 121.083 -12.1559 127.775C-11.7244 127.035 -12.179 127.815 -11.7475 127.075C-10.4959 124.928 -9.26833 122.824 -8.03651 120.724C-5.77932 118.778 -3.33802 117.072 -0.720726 115.702C2.26198 114.15 5.47672 113.101 8.78065 112.722C12.6765 112.29 16.5283 112.863 19.9712 114.175C24.7297 116.01 28.6741 119.041 31.8258 122.217C37.0506 127.462 40.847 133.514 43.6405 138.655V138.655C52.3115 154.58 54.7387 165.611 54.1478 165.826C53.5568 166.042 50.0039 155.35 40.8492 140.26C40.8492 140.26 40.8492 140.26 40.8492 140.26C37.8943 135.399 34.0473 129.712 29.0868 125.027C26.091 122.209 22.5343 119.565 18.5007 118.139C15.6277 117.107 12.4348 116.678 9.29453 117.076C6.60156 117.404 3.91366 118.328 1.35092 119.671C-0.856041 120.818 -2.9455 122.289 -4.91888 123.987C-7.25269 125.664 -9.59657 127.341 -11.9828 129.047C-12.0361 129.085 -12.7085 129.565 -12.7618 129.604C-14.2596 122.786 -16.3137 116.419 -19.7749 110.913C-20.873 108.851 -22.1606 106.963 -23.6653 105.344C-25.0298 103.873 -26.5696 102.614 -28.2256 101.627C-29.8479 100.655 -31.6017 99.9319 -33.3876 99.4349C-35.2558 98.914 -37.1844 98.6416 -39.0883 98.5435C-43.3754 98.3172 -47.647 99.0051 -51.4959 99.9506C-56.033 101.072 -60.2702 102.666 -63.9132 104.228C-68.0655 106.007 -71.769 107.902 -74.7314 109.501C-81.4872 113.592 -85.4566 115.773 -85.6785 115.438Z" fill="#8F6032"/>
<path d="M39.7313 133.34C39.7134 133.337 39.6951 133.336 39.6766 133.338C39.658 133.341 39.639 133.347 39.6195 133.356C39.5808 133.373 39.5403 133.402 39.4981 133.443C39.4145 133.523 39.3239 133.647 39.2268 133.813C39.0362 134.139 38.8192 134.628 38.5772 135.262C38.1133 136.478 37.5575 138.228 36.902 140.4C36.0378 143.264 35.679 144.519 34.8149 147.383C34.1217 149.664 33.3184 152.242 32.4071 154.823C31.6538 156.948 30.8106 159.187 29.7727 161.281C29.4045 162.023 29.0198 162.743 28.5962 163.408C28.544 163.49 28.4913 163.571 28.438 163.651C28.0289 164.254 27.6456 164.772 27.2305 165.149C26.8891 165.43 26.646 165.643 26.4834 165.662C26.426 165.68 26.3776 165.692 26.3507 165.692C26.3223 165.698 26.2658 165.687 26.196 165.668C25.9695 165.64 25.6589 165.341 25.2609 164.974C24.678 164.38 24.1759 163.58 23.6847 162.736C22.5976 160.804 21.7114 159.142 21.035 157.423C20.6213 156.278 20.2803 155.434 20.2878 154.653C20.2922 154.431 20.2807 154.281 20.3039 154.212C20.3042 154.175 20.3006 154.136 20.2893 154.129C20.2771 154.097 20.3443 154.058 20.4472 154.006C20.5808 153.946 20.7765 153.921 21.0014 153.904C21.5905 153.866 22.2711 153.99 22.8856 154.118C23.6556 154.282 24.4296 154.51 25.0275 154.687C26.6104 155.248 27.5871 155.442 27.7515 155.172C27.753 155.169 27.7527 155.17 27.7524 155.17C27.7522 155.171 27.7519 155.171 27.7534 155.168C27.7534 155.168 27.7534 155.168 27.7534 155.168C27.9115 154.894 27.2396 154.18 25.8517 153.102C25.2871 152.707 24.5497 152.253 23.6732 151.844L23.6732 151.844C23.0188 151.532 22.1844 151.212 21.1905 151.067C20.8005 151.009 20.3497 150.996 19.8465 151.066C19.41 151.124 18.9359 151.288 18.458 151.593C17.9928 151.913 17.6191 152.33 17.3698 152.819C17.0908 153.387 16.9434 153.95 16.9062 154.462C16.7848 155.965 17.0597 157.363 17.4658 158.634L17.4658 158.634C18.0702 160.687 18.9249 162.656 19.9518 164.714C20.4539 165.745 21.1074 166.857 22.0186 167.912C22.5989 168.624 23.4521 169.33 24.6258 169.831C25.1057 170.019 25.6342 170.134 26.1987 170.161C26.7417 170.18 27.2675 170.113 27.7614 169.967C28.8313 169.62 29.6798 169.078 30.2996 168.47C31.0851 167.737 31.7099 166.945 32.2212 166.158C32.2906 166.052 32.3589 165.947 32.4262 165.841C32.9716 164.98 33.4347 164.11 33.8407 163.259C34.988 160.858 35.8337 158.425 36.5161 156.169C37.3563 153.403 37.9985 150.726 38.4965 148.319C39.0623 145.586 39.4628 143.093 39.7276 140.999C40.0161 138.718 40.1502 136.863 40.1525 135.553C40.1537 134.867 40.1189 134.33 40.0497 133.956C40.0146 133.766 39.9707 133.618 39.918 133.514C39.8915 133.462 39.8628 133.421 39.8319 133.391C39.8165 133.376 39.8003 133.365 39.7838 133.356C39.7667 133.348 39.7492 133.343 39.7313 133.34L39.7313 133.34Z" fill="#8F6032"/>
<path d="M17.4637 115.805C17.4525 115.812 17.4421 115.819 17.4324 115.828C17.4233 115.838 17.4151 115.848 17.4078 115.861C17.3933 115.885 17.3821 115.915 17.3743 115.951C17.3589 116.022 17.3563 116.115 17.3661 116.23C17.3851 116.454 17.4509 116.762 17.5565 117.148C17.7579 117.885 18.1042 118.906 18.5382 120.19C19.2394 122.268 20.4025 125.634 21.0799 129.136C21.3665 130.624 21.5974 132.245 21.6115 133.867C21.6164 135.24 21.5004 136.655 21.0765 137.91C20.7098 139.006 20.112 140.059 19.2838 140.814C18.3834 141.696 17.0818 142.294 15.6161 142.708C14.334 143.041 13.0301 143.279 11.7633 143.305C11.5118 143.31 11.2629 143.307 11.0167 143.294C9.86164 143.235 8.77395 143.02 7.86083 142.585C7.06236 142.214 6.34833 141.684 5.80186 141.052C5.25887 140.436 4.8454 139.687 4.57113 138.905C3.99021 137.236 4.04913 135.383 4.60291 133.862C4.89893 133.051 5.32327 132.325 5.84813 131.745C6.42284 131.101 7.14439 130.605 7.89413 130.287C8.77187 129.932 9.56023 129.682 10.3214 129.59C10.938 129.517 11.4924 129.52 11.9772 129.639C12.4172 129.739 12.8269 129.93 13.171 130.171C13.5385 130.424 13.8589 130.764 14.1256 131.107C14.7442 131.891 15.1477 132.882 15.3958 133.486C15.6718 134.332 15.9224 134.806 16.1326 134.8C16.135 134.799 16.135 134.799 16.1346 134.799C16.1344 134.799 16.1343 134.799 16.1367 134.799C16.3466 134.786 16.5029 134.291 16.6048 133.327C16.6326 132.581 16.5412 131.373 15.9602 130.056C15.7108 129.499 15.3458 128.903 14.8203 128.348C14.3129 127.819 13.664 127.35 12.8843 127.026C12.0391 126.684 11.1141 126.51 10.1672 126.516C9.02813 126.519 7.89028 126.714 6.77047 127.054C5.51562 127.433 4.27734 128.109 3.20921 129.108C2.26074 130.002 1.4769 131.105 0.928448 132.359C-0.0925702 134.686 -0.357984 137.484 0.462346 140.214C0.851348 141.513 1.49882 142.776 2.41482 143.896C3.36278 145.045 4.56032 145.989 5.93057 146.648C7.48736 147.386 9.15753 147.763 10.8185 147.827C11.1667 147.841 11.5139 147.844 11.8598 147.836C13.6049 147.797 15.2712 147.496 16.8095 147.055C18.8449 146.508 20.7815 145.484 22.3512 143.952C23.7504 142.53 24.6529 140.822 25.1148 139.096C25.6184 137.194 25.6824 135.338 25.5386 133.675L25.5386 133.675C25.3768 131.711 24.9669 129.892 24.4869 128.291C23.3361 124.444 21.6846 121.289 20.4586 119.287C19.7282 118.093 19.0757 117.194 18.5647 116.606C18.2959 116.297 18.0663 116.074 17.8814 115.938C17.787 115.869 17.7048 115.823 17.635 115.8C17.5999 115.789 17.568 115.783 17.5394 115.784C17.5251 115.784 17.5116 115.786 17.499 115.789C17.4865 115.793 17.4747 115.799 17.4636 115.805L17.4637 115.805Z" fill="#8F6032"/>
<path d="M1.90569 97.4456C1.73173 97.4118 1.49991 97.4014 1.21661 97.42C0.718343 97.5429 0.397296 97.7283 0.219234 97.9135C-0.0547844 98.1546 -0.251349 98.3918 -0.394518 98.6004C-0.808093 99.1904 -1.07476 99.766 -1.24911 100.2C-1.50256 100.821 -1.64634 101.339 -1.7105 101.698C-1.74973 101.917 -1.76246 102.09 -1.75198 102.218C-1.74633 102.286 -1.73415 102.342 -1.71553 102.384C-1.70602 102.407 -1.69484 102.425 -1.68192 102.44C-1.60642 102.48 -1.55521 102.507 -1.52217 102.524C-1.49007 102.541 -1.47538 102.549 -1.47276 102.551C-1.47223 102.551 -1.47223 102.551 -1.47274 102.551C-1.4757 102.549 -1.4882 102.542 -1.50756 102.531C-1.52704 102.52 -1.55235 102.505 -1.57769 102.489C-1.55779 102.489 -1.53625 102.486 -1.51321 102.479C-1.46849 102.467 -1.41764 102.442 -1.36086 102.405C-1.25416 102.336 -1.1259 102.224 -0.974837 102.071C-0.69738 101.791 -0.410084 101.449 0.0164887 100.962C0.302451 100.637 0.681576 100.202 1.06952 99.8738C1.21224 99.7551 1.34865 99.6493 1.4719 99.5952C1.57477 99.5659 1.60214 99.551 1.53115 99.6049C1.33483 99.6087 1.24338 99.6239 1.26796 99.6139C1.28035 99.6285 1.32037 99.6775 1.39839 99.7449C1.62111 99.951 1.82442 100.2 2.10086 100.52C2.91847 101.483 3.59008 102.352 4.40768 103.315C5.28419 104.347 6.35351 105.536 7.59315 106.666C8.63093 107.625 9.93206 108.65 11.5444 109.421C12.0979 109.696 12.7928 109.951 13.6385 110.081C13.7911 110.106 13.9503 110.121 14.1154 110.125C14.6009 110.138 15.1358 110.056 15.7007 109.857C16.3541 109.58 16.8708 109.208 17.2408 108.794V108.794C17.6398 108.359 17.9335 107.947 18.1549 107.594C18.698 106.776 19.12 106.036 19.5686 105.558C20.1198 104.931 20.8512 104.43 21.6496 104.118C22.0894 103.967 22.4149 103.847 22.6097 103.87C22.6908 103.889 22.7199 103.879 22.6298 103.87C22.594 103.824 22.6292 103.904 22.752 104.037C22.9001 104.229 23.046 104.534 23.2374 104.917C23.2374 104.917 23.2374 104.917 23.2374 104.917C23.7104 105.909 24.1775 107.071 24.8537 108.299C25.6949 109.823 26.8064 111.238 28.194 112.417C28.8068 112.941 29.514 113.457 30.3389 113.904C30.9505 114.242 31.672 114.513 32.4929 114.664H32.4929C33.1967 114.78 33.8948 114.772 34.5625 114.651C35.2147 114.526 35.7755 114.342 36.2482 114.142C37.3332 113.698 38.1904 113.235 38.9273 112.973C39.9717 112.586 41.0885 112.397 42.1882 112.381C42.5186 112.318 43.0162 112.543 43.5706 112.824C44.2856 113.225 44.9695 113.854 45.64 114.532C47.4027 116.336 48.8838 118.597 50.0792 120.473C51.1043 122.091 52.027 123.667 52.7668 124.928C53.1295 125.546 53.4399 126.074 53.7329 126.562C54.2568 127.434 54.6698 128.082 54.9941 128.515C55.1691 128.749 55.3175 128.918 55.4405 129.024C55.5043 129.079 55.5615 129.117 55.6121 129.137C55.6379 129.148 55.662 129.154 55.6844 129.156C55.6957 129.157 55.7066 129.157 55.7171 129.155C55.7388 129.153 55.7585 129.145 55.7766 129.133C55.7854 129.127 55.7937 129.12 55.8016 129.112C55.8174 129.095 55.8314 129.074 55.8436 129.049C55.8679 128.999 55.8853 128.932 55.8959 128.848C55.9165 128.683 55.9107 128.454 55.8772 128.161C55.814 127.609 55.6523 126.832 55.3775 125.847C54.9199 124.206 54.0849 121.762 52.7853 118.982C51.8495 116.966 50.4936 114.35 48.5116 111.95C47.8777 111.175 47.1021 110.367 46.1382 109.648C46.0113 109.554 45.8812 109.461 45.7478 109.37C44.8446 108.726 43.6586 108.237 42.2365 108.149C40.6608 108.09 39.0453 108.299 37.4785 108.807C36.3331 109.19 35.3891 109.652 34.5777 109.955C34.2528 110.07 33.9886 110.158 33.7861 110.178C33.6025 110.201 33.4226 110.199 33.2718 110.163C33.0689 110.133 32.8128 110.012 32.509 109.854C32.082 109.624 31.644 109.279 31.1684 108.88C30.2685 108.119 29.5148 107.122 28.891 106.022C28.3882 105.14 27.9506 104.054 27.3683 102.881C27.1415 102.406 26.8397 101.862 26.4176 101.287V101.287C26.0593 100.772 25.5096 100.265 24.7595 99.8377C23.9224 99.4303 23.0923 99.2795 22.3373 99.3464C21.3502 99.4367 20.5377 99.6898 19.9033 99.9885V99.9885C18.4545 100.616 17.1923 101.578 16.2146 102.778C15.4629 103.737 14.9643 104.661 14.5531 105.38C14.3748 105.67 14.2578 105.881 14.1586 105.988C14.0843 106.056 14.083 106.093 14.1461 106.052C14.2368 106.055 14.1963 106.045 14.0781 106.064C13.8503 106.072 13.5139 105.954 13.0924 105.808C11.9852 105.4 10.8978 104.665 9.87259 103.907C8.72378 103.046 7.61245 102.054 6.62711 101.157C5.60273 100.224 4.87072 99.5105 3.89038 98.6896C3.56154 98.41 3.20047 98.1198 2.76972 97.8474C2.62467 97.7506 2.42284 97.6414 2.16521 97.5369C2.10365 97.4981 2.01658 97.4672 1.90568 97.4457L1.90569 97.4456Z" fill="#8F6032"/>
<path d="M0.578083 90.7114C0.164463 90.8041 -0.964615 87.5785 -2.58264 81.9059C-3.15932 80.119 -3.91532 77.7759 -4.84602 75.6517C-5.16943 74.9197 -5.50738 74.1885 -5.91477 73.5792C-6.06073 73.3654 -6.18773 73.1876 -6.30983 73.0755C-6.41773 72.9998 -6.42679 72.9714 -6.34334 73.0474C-6.94838 72.798 -7.52642 72.5654 -8.05733 72.4491C-8.45093 72.4017 -8.68428 72.3264 -8.67087 72.3962C-8.51263 72.3237 -8.45169 72.322 -8.41344 72.2583C-8.51567 72.3846 -8.47286 72.7668 -8.50143 73.342C-8.51198 74.1994 -8.67396 74.919 -8.87325 75.4864C-9.12741 76.29 -9.44563 77.0438 -9.7938 77.7596C-10.603 79.4343 -11.6038 81.0521 -12.7731 82.6021C-13.814 84.0058 -15.0824 85.4589 -16.7022 86.6899C-17.3165 87.1676 -18.0802 87.6282 -19.0143 87.9667C-19.768 88.2692 -20.7421 88.3581 -21.8515 88.097C-22.6327 87.8686 -23.3239 87.5764 -23.9404 87.2771C-24.7871 86.8736 -25.5994 86.4239 -26.3846 85.9438L-26.3846 85.9438C-28.2637 84.7984 -30.0746 83.4427 -31.7499 81.8711C-33.4549 80.2883 -35.0692 78.3928 -36.2786 76.1261C-36.8414 75.0664 -37.2964 73.899 -37.5764 72.6413C-37.646 72.326 -37.7024 72.0063 -37.7447 71.6831C-37.8687 70.7376 -37.872 69.7707 -37.7442 68.8073C-37.5031 67.0354 -37.3305 65.174 -37.0017 63.2672C-36.7499 61.6762 -36.2878 59.9786 -35.3708 58.3406C-34.3225 56.5934 -32.8555 55.2865 -31.2756 54.4049C-28.9111 53.083 -26.4302 52.3869 -24.1798 51.906C-18.5253 50.6101 -12.9559 51.0132 -8.30278 53.0822C-3.65526 55.188 -0.60302 58.8906 0.808212 62.5512C3.92691 71.6153 5.54529 77.1459 5.03347 77.3497C5.03162 77.3505 5.03162 77.3505 5.03189 77.3502C5.03202 77.3502 5.03214 77.3501 5.03029 77.3508C5.03029 77.3508 5.03029 77.3508 5.03029 77.3508C4.50974 77.5317 1.94632 72.358 -1.8787 63.6456C-3.24238 60.7652 -5.95801 57.9618 -9.74742 56.4689C-13.5989 54.9102 -18.281 54.8364 -23.2091 56.0306C-25.2989 56.5709 -27.3871 57.1723 -29.0708 58.2012C-30.0971 58.833 -31.0084 59.6259 -31.5031 60.5632C-32.045 61.4636 -32.3088 62.663 -32.5583 64.0221C-32.8382 65.6968 -32.9928 67.5034 -33.2494 69.4145C-33.3247 69.9535 -33.3188 70.5202 -33.2433 71.0909C-33.2175 71.286 -33.1837 71.4809 -33.1424 71.6747C-32.9767 72.4616 -32.6625 73.2512 -32.2655 74.0232C-31.4058 75.7054 -30.1009 77.2247 -28.6662 78.6192C-27.2432 79.9856 -25.6884 81.1838 -24.0663 82.2152C-23.3885 82.6447 -22.7162 83.0363 -22.0394 83.3749C-21.5163 83.6308 -21.0576 83.8483 -20.6384 83.9729C-20.73 84.0112 -20.6048 83.9554 -20.3642 83.9258C-20.0271 83.8395 -19.6347 83.5928 -19.1837 83.2923C-18.0051 82.4792 -16.9585 81.3222 -15.966 80.115C-14.8915 78.784 -13.9683 77.4214 -13.2182 76.0223C-12.8988 75.4222 -12.6226 74.8552 -12.4207 74.2977C-12.2788 73.8466 -12.1548 73.5352 -12.1654 73.3418C-12.194 72.6131 -12.0671 71.6829 -11.6062 70.6747V70.6747C-11.1941 69.8571 -10.4499 69.2647 -9.49073 68.9989C-8.50064 68.8328 -7.71149 68.9518 -7.16066 69.1617C-6.32645 69.4178 -5.60004 69.7531 -4.97068 70.0735C-4.45864 70.3473 -4.11366 70.6456 -3.9103 70.9156C-3.60551 71.2778 -3.37699 71.6313 -3.20166 71.9537C-2.70115 72.8602 -2.35411 73.764 -2.07801 74.5784C-1.24137 77.0167 -0.70388 79.46 -0.326778 81.3612C0.637066 87.2183 0.991943 90.6186 0.578243 90.7113L0.578083 90.7114Z" fill="#8F6032"/>
<path d="M12.0986 73.361C6.35312 77.9196 3.75879 80.2942 4.0029 80.643V80.643C4.00837 80.6505 4.00501 80.6461 4.00501 80.646C4.3257 81.061 8.94847 78.4055 17.2959 72.9694C19.9462 71.349 23.7452 70.4334 27.8098 71.2762C28.5056 71.4138 29.2032 71.6015 29.9015 71.8399C33.3347 73.0122 36.5432 75.3325 39.3113 78.2849C40.7899 79.911 42.1874 81.5429 43.0256 83.3123C43.5432 84.4143 43.8651 85.5735 43.7661 86.6209C43.7259 87.6763 43.2839 88.8326 42.7537 90.0926C42.0631 91.6632 41.2009 93.2614 40.3774 94.9822C40.0641 95.6461 39.6012 96.2676 39.0496 96.8144C38.4821 97.3798 37.7881 97.8683 37.0294 98.2988C35.3994 99.2289 33.4845 99.7874 31.5003 100.172C29.5746 100.533 27.6188 100.686 25.6819 100.66C24.882 100.648 24.1045 100.607 23.3508 100.52C22.7745 100.447 22.2706 100.378 21.8511 100.252C21.9064 100.334 21.8325 100.219 21.6471 100.062C21.4127 99.8056 21.22 99.3851 21.0067 98.8853C20.4684 97.564 20.2261 96.0288 20.0562 94.4642C19.8877 92.7718 19.8604 91.1248 20.0004 89.5349C20.0619 88.8598 20.1415 88.2334 20.2784 87.6554C20.4066 87.2014 20.4738 86.872 20.5886 86.7162C21.0106 86.124 21.4151 85.2765 21.5824 84.1783C21.6855 83.2697 21.3886 82.3659 20.7307 81.6166C19.9943 80.936 19.2691 80.6023 18.6919 80.4758C17.8552 80.2334 17.0648 80.1157 16.3601 80.0386C15.782 79.9872 15.3297 80.0475 15.0112 80.1621C14.5582 80.298 14.1733 80.4684 13.8494 80.6424C12.9367 81.1252 12.1523 81.6896 11.4714 82.2227C9.92099 83.4272 8.53996 84.7065 7.37109 85.8552C6.99356 86.2263 6.63113 86.5908 6.29066 86.938C-2.37935 96.3786 -1.21771 96.494 7.87956 88.6298C9.30778 87.4784 11.2464 85.913 13.2 84.6386C13.8674 84.2061 14.5531 83.7777 15.2294 83.4904C15.4681 83.3917 15.672 83.3124 15.8356 83.2855C15.9672 83.2813 15.9905 83.2625 15.8787 83.2803C16.5183 83.4025 17.1314 83.5248 17.6402 83.7187C17.9946 83.8942 18.2319 83.9592 18.1823 84.0102C18.0897 83.863 18.0394 83.8279 18.0424 83.7534C18.0588 83.915 17.8149 84.2092 17.5225 84.708C17.0625 85.4297 16.8033 86.12 16.6588 86.7057C16.5339 87.1508 16.433 87.5953 16.3506 88.0382C16.2832 88.4001 16.2286 88.7584 16.1834 89.1118C15.9401 90.978 15.8953 92.8818 16.0227 94.7951C16.1257 96.563 16.3947 98.4656 17.0699 100.368C17.3231 101.107 17.7105 101.91 18.3044 102.702C18.7708 103.371 19.5383 103.978 20.6065 104.366C21.3873 104.603 22.1265 104.737 22.8032 104.825C23.7365 104.951 24.6632 105.02 25.5783 105.048C27.8047 105.121 30.0607 104.973 32.2981 104.581C34.6259 104.185 37.0045 103.477 39.2342 102.256V102.256C40.2927 101.674 41.3112 100.946 42.2292 100.052C43.1365 99.1661 43.9032 98.1163 44.4701 96.9367C45.2335 95.334 46.1091 93.683 46.8841 91.8952C47.5406 90.4362 48.0879 88.7609 48.2187 86.8805C48.2987 84.8544 47.7934 82.9582 46.9493 81.3447C45.7021 78.956 44.0183 77.0187 42.3827 75.3666C38.429 71.2532 33.5645 68.4827 28.457 67.6504L28.457 67.6504C23.5532 66.8867 18.9002 68.2419 15.6466 70.5799C14.3833 71.5597 13.1977 72.4888 12.0985 73.361H12.0986Z" fill="#8F6032"/>
<path d="M3.12992 30.2514C3.11726 30.2616 3.10415 30.2705 3.08986 30.2786C3.07657 30.2861 3.06258 30.2926 3.04784 30.2981C3.01888 30.309 2.98735 30.316 2.95295 30.3192C2.88665 30.3249 2.81071 30.3156 2.7254 30.2906C2.57256 30.246 2.38548 30.1473 2.18358 29.9824C1.89169 29.7593 1.45448 29.2978 1.29415 28.4366C1.23935 28.0708 1.28519 27.6351 1.51357 27.1712C1.78751 26.6982 2.16148 26.3171 2.5807 26.1011C3.79541 25.442 5.17228 25.2593 6.45518 25.3421C7.74382 25.3383 9.31424 25.4511 10.9779 25.9202C12.1163 26.2278 13.3701 26.8071 14.5214 27.8247C15.509 28.7525 16.2263 29.929 16.5887 31.2369C16.7112 31.6969 16.7999 32.1553 16.8589 32.6096C16.9922 33.6362 16.9694 34.608 16.8645 35.4878C16.727 36.9728 16.2497 38.4113 15.4545 39.6748C14.7605 40.7525 13.8533 41.5976 12.8581 42.1944C11.9721 42.7275 11.0213 43.0504 10.0839 43.1829C9.42156 43.3269 8.55966 43.2864 7.65436 42.9742C6.5755 42.4441 5.55846 42.0088 4.77125 41.5908C3.54095 40.9444 2.88187 40.397 2.9713 40.0187V40.0187C2.97262 40.0131 2.97261 40.0136 2.97235 40.0141C2.97223 40.0146 2.97211 40.0149 2.97367 40.0094V40.0094C3.07535 39.6341 3.91478 39.4723 5.31469 39.5022C6.14605 39.5222 7.36833 39.6143 8.68307 39.8882C8.71852 39.8898 8.92136 39.75 9.33392 39.6648C9.77896 39.5026 10.2242 39.2402 10.6439 38.8966C11.0933 38.5236 11.4924 38.0333 11.7773 37.4748C12.1263 36.8258 12.3106 36.0069 12.3848 35.0926C12.4177 34.4122 12.4328 33.7521 12.3654 33.17C12.3355 32.9109 12.2895 32.669 12.2226 32.4447C12.0674 31.8814 11.8046 31.3707 11.4606 31.0247C11.0607 30.5595 10.367 30.1963 9.63563 29.8686C8.53548 29.3998 7.23437 29.1065 6.10317 28.8622C4.81558 28.6867 4.29018 28.4117 3.68234 28.5545C3.58312 28.571 3.5177 28.5186 3.51811 28.4694C3.49665 28.3924 3.44643 28.4018 3.3911 28.44C3.23965 28.606 3.27778 29.0538 3.2858 29.3536C3.2956 29.5619 3.30152 29.7379 3.28564 29.8861C3.27702 29.9664 3.26111 30.0374 3.23749 30.0968C3.22529 30.1281 3.21052 30.1566 3.19337 30.1818C3.18459 30.1947 3.17513 30.2069 3.16497 30.2181C3.154 30.2303 3.14258 30.2412 3.12992 30.2514V30.2514Z" fill="#8F6032"/>
<path d="M-9.15213 54.3431C-9.16545 54.3533 -9.17983 54.3615 -9.19577 54.3681C-9.21107 54.3745 -9.22756 54.3792 -9.24525 54.3822C-9.28036 54.3881 -9.31993 54.3873 -9.3641 54.38C-9.45108 54.3652 -9.55459 54.3241 -9.67357 54.2564C-9.90061 54.1271 -10.1828 53.8991 -10.4979 53.566C-11.0526 52.9807 -11.7679 52.0017 -12.3228 50.6417V50.6416C-12.809 49.4569 -13.1882 47.8749 -13.038 46.0522C-12.8636 44.2327 -12.1431 42.3093 -10.7885 40.6246C-8.73253 37.9668 -5.37739 35.3844 -0.976077 34.7889C0.551622 34.5747 2.27147 34.726 3.95494 35.4655C3.99518 35.4832 4.03535 35.5012 4.07548 35.5195C5.73105 36.3334 6.95698 37.7169 7.58854 39.36C7.94463 40.3172 8.37068 41.3216 8.77299 42.2954C9.05925 42.9528 9.3868 43.751 9.60649 44.7426C9.81174 45.6088 9.73531 46.599 9.33567 47.5961C8.76273 48.7141 8.05274 49.4262 7.4488 49.8637C5.73247 51.2809 3.89377 52.279 2.03791 52.8359C1.21753 53.1178 0.239316 53.2573 -0.801233 53.1132C-1.26629 53.0488 -1.74868 52.8524 -2.20179 52.5331C-2.67763 52.1612 -2.98185 51.7111 -3.14062 51.2495C-3.63465 49.6606 -3.57643 48.2312 -3.45913 47.3633C-3.38496 46.787 -3.26837 46.3373 -3.14201 46.0316C-3.0733 45.8653 -3.0013 45.7393 -2.92804 45.6545C-2.89015 45.6101 -2.85229 45.5771 -2.81429 45.5556C-2.75737 45.5467 -2.72783 45.5393 -2.71252 45.5341C-2.69751 45.5289 -2.69626 45.5258 -2.69618 45.5254C-2.69617 45.5253 -2.69618 45.5254 -2.69618 45.5254C-2.69618 45.5254 -2.69618 45.5253 -2.69618 45.5254C-2.69613 45.5259 -2.69513 45.529 -2.68078 45.5355C-2.66603 45.5422 -2.63725 45.5523 -2.58128 45.5664C-2.54532 45.5901 -2.50955 45.624 -2.47432 45.6673C-2.40626 45.7521 -2.3385 45.8746 -2.27004 46.0313C-2.14184 46.3247 -2.01265 46.7292 -1.85381 47.2393C-1.6229 47.9706 -1.25584 49.259 -0.677112 50.1937C-0.628142 50.217 -0.592945 50.2234 -0.602907 50.1667C-0.61308 50.147 -0.558934 50.1173 -0.462673 50.1162C-0.140584 50.1252 0.25706 49.9167 0.875839 49.6702C2.19428 49.0611 3.46882 48.1231 4.79458 46.8556C5.19304 46.4084 5.51807 46.1133 5.50092 45.9445C5.51485 45.9813 5.46248 45.8643 5.43186 45.6783C5.3372 45.2674 5.06719 44.7663 4.75468 44.061C4.31103 43.1098 3.83167 42.0734 3.39515 40.9833C3.16916 40.411 2.67371 39.8653 2.10562 39.6079C2.09005 39.5994 2.0743 39.591 2.05841 39.5828C1.39662 39.2422 0.466118 39.195 -0.479737 39.2559C-3.31902 39.466 -5.97102 41.3108 -7.83065 43.1828C-8.8367 44.2272 -9.49918 45.403 -9.78275 46.5539C-10.0924 47.7198 -10.0511 48.9555 -9.92012 49.9674C-9.76588 51.1205 -9.45868 52.179 -9.27656 52.8649C-9.16993 53.2649 -9.09058 53.592 -9.06048 53.8348C-9.04467 53.9622 -9.04271 54.0689 -9.05614 54.1527C-9.06288 54.1958 -9.07397 54.2332 -9.08944 54.2647C-9.09726 54.2806 -9.10628 54.295 -9.11646 54.3079C-9.12711 54.3214 -9.13882 54.3331 -9.15213 54.3432V54.3431Z" fill="#8F6032"/>
<path d="M11.318 18.7567C11.9995 18.4603 13.2238 19.6121 14.5048 21.5417C15.0329 22.0659 15.5904 22.6174 16.0967 22.7836C16.304 22.8719 16.4939 22.9371 16.6294 22.9347C16.743 22.9499 16.8998 22.9292 17.0765 22.8907C17.101 22.8853 17.1258 22.8797 17.1507 22.8738C18.8731 22.4501 20.684 21.3351 22.008 20.5823C23.5326 19.5042 24.8124 18.9769 25.3283 19.3835C25.3283 19.3835 25.3283 19.3835 25.3283 19.3835C25.3323 19.3867 25.3322 19.3866 25.3321 19.3865C25.3321 19.3865 25.332 19.3864 25.336 19.3896H25.336C25.8476 19.8084 25.4796 21.0966 24.3983 22.9208C23.3359 24.4293 21.3576 26.3183 18.3972 27.2366C18.2991 27.2658 18.1995 27.2923 18.0986 27.3159C17.3694 27.4867 16.6002 27.5011 15.8336 27.358C14.9989 27.1807 14.2892 26.8453 13.7165 26.4231C12.4068 25.3954 11.6783 24.2018 11.2841 23.2208C10.6559 20.7512 10.633 19.0546 11.318 18.7567L11.318 18.7567Z" fill="#8F6032"/>
<path d="M27.0565 50.0499C27.4383 50.1128 27.7814 50.1639 28.105 50.2027C29.5628 50.3837 30.3455 50.2812 30.4795 49.9409C30.4827 49.9324 30.4825 49.9329 30.4828 49.932C30.6086 49.5794 30.0549 48.9781 28.8508 48.177C28.1811 47.734 27.123 47.1055 25.8646 46.5711C25.8352 46.5526 25.7509 46.3252 25.4577 46.0169C25.3707 45.8936 25.289 45.7614 25.2131 45.6206C25.0508 45.3195 24.9193 44.9875 24.82 44.6388C24.6606 44.0643 24.6176 43.4334 24.7007 42.8244C24.7862 42.0773 25.1123 41.2942 25.5612 40.5215C26.0968 39.6656 26.6103 38.9148 27.2052 38.4395C27.6475 38.0708 28.1551 37.7967 28.6414 37.7077C29.2303 37.5552 29.9988 37.649 30.8 37.8001C31.9601 38.0411 33.1776 38.5337 34.2746 38.9908C34.2746 38.9908 34.2746 38.9908 34.2746 38.9908C35.4006 39.5657 36.023 39.6582 36.4382 40.1189C36.4622 40.1422 36.4882 40.1573 36.5129 40.1654C36.5615 40.1813 36.6032 40.1698 36.6218 40.1425C36.6838 40.0912 36.7196 40.1286 36.743 40.1908C36.7728 40.4148 36.4776 40.7704 36.3081 41.0009C36.1788 41.1693 36.0752 41.3085 36.0043 41.4379C35.9651 41.5092 35.9378 41.5763 35.9234 41.6379C35.9155 41.6705 35.9113 41.7022 35.911 41.7324C35.9108 41.7479 35.9118 41.7632 35.9136 41.7781C35.9177 41.8104 35.9264 41.8406 35.9406 41.8699C35.9472 41.8836 35.9549 41.8968 35.9638 41.9097C35.9813 41.935 36.0032 41.9586 36.0296 41.9808C36.0805 42.0231 36.148 42.0588 36.2327 42.0872C36.3822 42.1375 36.5917 42.1643 36.8536 42.1445C37.2118 42.129 37.8381 42.0056 38.4673 41.3848C38.4673 41.3848 38.4673 41.3848 38.4673 41.3848C38.7196 41.1175 38.9321 40.7342 39.0099 40.2204C39.0547 39.679 38.9668 39.1514 38.7444 38.732C38.1348 37.5206 37.1252 36.5792 35.9951 35.898C35.7207 35.7063 35.4273 35.5109 35.1159 35.3174C34.2001 34.7482 33.1471 34.2051 31.951 33.7922C30.8116 33.3847 29.4535 33.1584 27.9542 33.334C26.5874 33.5361 25.3329 34.106 24.3094 34.9562C23.1171 35.9673 22.2671 37.143 21.6576 38.29C20.9349 39.5674 20.4955 41.0188 20.4263 42.5326C20.3815 43.8 20.6376 45.0125 21.1198 46.0834C21.539 47.0182 22.1321 47.8283 22.8333 48.4788C23.2907 48.9706 24.0192 49.432 24.9478 49.6943C25.6895 49.8067 26.4 49.9418 27.0565 50.0499H27.0565Z" fill="#8F6032"/>
<path d="M29.4509 62.3513C30.5679 61.3773 31.2336 60.3046 31.5831 59.6218C32.0982 58.475 32.217 57.8531 31.9974 57.6982C31.9905 57.6936 31.9913 57.6941 31.9906 57.6936C31.7602 57.5458 31.1802 57.8802 30.3099 58.6397C29.7281 59.0877 28.6763 59.9461 27.6693 60.3749C27.6162 60.3659 27.5835 60.3511 27.6244 60.3102C27.6441 60.2998 27.6173 60.2448 27.5386 60.1888C27.2696 60.0129 27.0662 59.6215 26.694 59.0594C26.3273 58.4349 26.0071 57.7336 25.7313 56.9397C25.4664 56.1772 25.2551 55.3657 25.0816 54.5122C25.0087 53.91 24.9112 53.4896 25.0215 53.361C24.9888 53.3834 25.0998 53.3161 25.2301 53.1818C25.5422 52.8985 26.0595 52.6352 26.7091 52.2401C27.6356 51.7009 28.609 51.1296 29.5819 50.4886C30.104 50.1409 30.8234 49.9843 31.4257 50.0949C32.1715 50.1748 32.9777 50.6673 33.75 51.2809C35.9131 53.0338 37.0652 55.9801 37.5448 58.7009C37.7711 60.1118 37.6538 61.4589 37.2235 62.5827C36.9021 63.5564 36.3131 64.4319 35.7042 65.1507C35.6308 65.2374 35.557 65.3219 35.4834 65.404C30.6705 68.9658 31.2596 69.7699 36.8839 67.4508C37.9482 66.7631 39.2076 65.6654 40.1847 64.0292C40.7739 62.9797 41.2047 61.743 41.3776 60.3661C41.4629 59.6873 41.4832 58.9904 41.434 58.2881C41.2517 54.7241 39.8546 50.7813 36.7064 47.8963C35.5247 46.803 33.9735 45.945 32.1412 45.6136C30.3392 45.3407 28.5397 45.7615 27.065 46.763C26.228 47.3449 25.3186 47.9179 24.4173 48.4978C23.8127 48.8708 23.0852 49.3404 22.3363 50.0316C21.6765 50.623 21.1722 51.4779 20.9303 52.529C20.7634 53.7687 20.9373 54.7585 21.1853 55.4678C21.7761 57.5775 22.7059 59.4558 23.9317 60.9969C24.4396 61.6899 25.1617 62.366 26.1054 62.845C26.5225 63.0566 27.0304 63.1714 27.587 63.1677C28.1876 63.1339 28.6948 62.9392 29.0907 62.6491C29.2162 62.5508 29.3362 62.4513 29.4509 62.3513L29.4509 62.3513Z" fill="#8F6032"/>
<path d="M25.3274 21.8033C25.1775 21.5145 25.0368 21.2651 24.8997 21.0536C24.7292 20.7902 24.5638 20.5892 24.4044 20.453C24.3202 20.3811 24.2358 20.3269 24.1534 20.2907C24.111 20.2726 24.0682 20.2587 24.0262 20.2495C23.9615 20.2453 23.9279 20.2418 23.9105 20.2394C23.8937 20.237 23.8921 20.2356 23.8919 20.2354C23.8919 20.2353 23.8919 20.2354 23.8919 20.2354C23.8918 20.2356 23.8906 20.2369 23.8747 20.24C23.8582 20.2431 23.8259 20.2476 23.7629 20.254C23.7208 20.2658 23.6794 20.2832 23.638 20.3063V20.3063C23.5565 20.3509 23.4776 20.4161 23.4005 20.5023C23.2522 20.6681 23.1154 20.9106 22.998 21.2293C22.7847 21.8077 22.6341 22.6588 22.6517 23.7394C22.654 24.0886 22.6749 24.4667 22.7209 24.8687C22.9338 26.7259 23.6544 28.8004 25.1071 30.6391C25.6301 31.2939 26.3217 31.8319 27.1432 32.2013C27.9213 32.5283 28.6948 32.6616 29.4151 32.6415C31.0476 32.5469 32.3286 32 33.2403 31.4014C33.9072 30.8237 34.4772 30.2663 34.9174 29.7508C37.0413 27.2644 35.3454 26.6778 31.5532 28.1837C31.4873 28.1953 31.4209 28.207 31.3551 28.2183C30.6505 28.3397 29.9974 28.4327 29.5374 28.2953C29.312 28.2485 29.1221 28.1936 29.0137 28.1153C28.896 28.055 28.7587 27.9222 28.6203 27.7679C27.4478 26.4103 26.6558 24.5645 25.9298 23.0454C25.7213 22.5976 25.5206 22.1754 25.3275 21.8033H25.3274Z" fill="#8F6032"/>
<path d="M-44.8497 151.281C-43.9362 151.675 -52.4685 173.152 -65.4645 202.884C-66.0374 202.41 -66.6133 201.933 -67.192 201.452V201.452C-62.3058 203.127 -48.9943 207.664 -44.1081 209.339C-35.4547 212.297 -27.4155 215.059 -19.6356 217.776C-8.02236 189.29 1.22468 168.932 2.13683 169.319C3.04899 169.706 -5.38771 191.044 -18.4009 220.625C-26.4535 217.532 -34.8425 214.265 -43.8755 210.732C-58.7401 204.919 -53.0706 207.132 -67.9352 201.32C-67.7692 200.838 -67.6028 200.361 -67.4358 199.887C-55.3054 171.336 -45.7632 150.888 -44.8497 151.281Z" fill="#8F6032"/>
<path d="M-16.5685 210.071C-16.5685 209.982 -16.5111 209.947 -16.3979 209.889C-16.3278 209.859 -16.2436 209.839 -16.1427 209.823C-15.9497 209.794 -15.7151 209.793 -15.4206 209.808C-14.8473 209.84 -14.1766 209.936 -13.273 210.067C-11.8644 210.271 -9.5756 210.636 -7.37932 210.619C-5.57344 210.584 -3.40526 210.363 -1.80494 209.378C-1.05572 208.944 -0.361414 208.339 0.18713 207.607C0.82955 206.774 1.29459 205.716 1.65002 204.522C2.04823 203.144 2.47327 201.72 2.92785 200.282C3.44079 198.66 3.97008 197.088 4.53038 195.554C5.52745 192.815 6.57201 190.336 7.84003 188.014C8.95749 185.924 10.2233 184.117 11.8469 182.676C12.5803 182.024 13.4012 181.503 14.2792 181.146C15.2036 180.776 16.1442 180.662 16.9936 180.735C18.9727 180.956 21.0946 181.389 21.4866 181.528C21.5821 181.558 21.6577 181.609 21.7014 181.637C21.7804 181.468 21.6745 181.794 21.6569 181.837C21.7531 181.973 21.7599 181.948 21.7597 181.907C21.7647 181.858 21.7654 181.829 21.7646 181.813C21.7641 181.803 21.7633 181.797 21.7622 181.794C21.7612 181.791 21.7601 181.79 21.7598 181.79C21.7598 181.79 21.7598 181.79 21.7598 181.79C21.7598 181.79 21.7598 181.79 21.7599 181.79C21.7601 181.79 21.7617 181.789 21.7643 181.787C21.7669 181.785 21.7709 181.78 21.7769 181.772C21.7871 181.758 21.8024 181.734 21.8257 181.692C21.8447 181.664 21.8923 181.641 21.9933 181.813C21.9491 181.964 21.8446 182.174 21.8334 182.085C21.7609 182.16 21.6733 182.214 21.5737 182.276C20.7645 182.772 19.3922 183.009 16.9936 183.289C16.5274 183.362 16.0387 183.549 15.5763 183.845C15.1123 184.135 14.6785 184.551 14.2179 185.078C13.1424 186.305 12.3804 187.815 11.4601 189.817C10.4712 192.028 9.65722 194.324 8.74973 197.03C8.24729 198.533 7.76025 200.052 7.25506 201.65C6.77418 203.172 6.42278 204.299 5.9419 205.821C5.44398 207.447 4.65312 208.987 3.5532 210.318C2.563 211.496 1.36089 212.401 0.0726871 213.018C-2.70101 214.287 -5.49032 214.303 -7.62747 213.976C-10.2815 213.595 -12.4832 212.736 -13.8913 212.05C-14.7209 211.648 -15.3852 211.248 -15.8199 210.935C-16.0533 210.767 -16.2382 210.607 -16.3581 210.482C-16.4225 210.415 -16.4714 210.349 -16.504 210.295C-16.5444 210.244 -16.5686 210.106 -16.5686 210.071H-16.5685Z" fill="#8F6032"/>
</svg>
