<svg width="58" height="241" viewBox="0 0 58 241" fill="none" xmlns="http://www.w3.org/2000/svg">
<path d="M144.206 180.628C144.393 180.551 144.052 179.209 143.247 176.767C142.641 174.819 141.592 171.533 140.638 167.974C139.873 165.118 138.962 161.428 138.524 157.646C138.353 156.16 138.24 154.589 138.311 153.034C138.374 151.805 138.519 150.564 138.927 149.483C139.525 147.85 140.358 146.236 141.499 144.86C142.313 143.859 143.394 142.887 144.496 141.684C145.681 140.398 146.714 138.864 147.426 137.103C148.443 134.505 148.828 131.786 148.969 129.071C149.177 125.124 148.32 121.165 146.77 117.416C144.806 112.632 142.012 108.256 138.811 103.962C131.944 94.7233 123.968 86.2686 114.932 77.5164C111.238 73.9388 107.467 70.406 103.864 67.034C84.9907 49.3494 66.6562 33.0901 53.5203 21.7004C37.4646 7.87784 27.3229 -0.440759 26.8976 0.0180455C26.8976 0.018045 26.8976 0.0180475 26.8976 0.0180475V0.0180496C26.8968 0.0190272 26.8952 0.0206133 26.8971 0.0187108C26.8987 0.0168083 26.8973 0.0183923 26.8965 0.01937V0.019372V0.0193741C26.4897 0.494701 35.877 9.65891 51.3772 24.0859C64.3917 36.2855 81.7057 52.2574 100.779 70.3103C104.345 73.6899 108.126 77.2539 111.77 80.7818C120.739 89.4652 128.58 97.6552 135.351 106.563C138.479 110.69 141.158 114.701 142.991 118.997C144.4 122.324 145.242 125.668 145.112 128.889C145.006 131.427 144.778 133.743 144.008 135.787C143.542 137.084 142.775 138.285 141.869 139.344C140.948 140.413 139.845 141.487 138.854 142.772C137.492 144.564 136.557 146.535 135.944 148.472C135.458 150.029 135.324 151.572 135.334 152.974C135.338 154.758 135.539 156.469 135.805 158.035C136.482 162.036 137.639 165.736 138.64 168.592C139.921 172.252 141.225 175.248 142.161 177.204C143.316 179.513 144.019 180.705 144.206 180.628H144.206Z" fill="#8F6032"/>
<path d="M28.1563 3.32684C28.1489 3.32547 28.1412 3.32565 28.1332 3.32734C28.1251 3.33007 28.1167 3.33482 28.1079 3.34158C28.0903 3.35508 28.0713 3.37659 28.0508 3.40605C28.0508 3.40605 28.0508 3.40605 28.0508 3.40605C28.01 3.46479 27.9635 3.5551 27.9115 3.67642C27.8081 3.91757 27.6828 4.28117 27.5365 4.76268C27.2477 5.713 26.8774 7.12203 26.4329 8.95532C25.5716 12.5071 24.4322 17.6479 23.0687 24.1252C20.5967 35.869 17.351 52.1806 13.7371 71.2318C10.9219 86.0728 7.74688 103.244 4.66882 120.92C4.13778 123.969 3.60288 127.066 3.07684 130.177C2.55729 133.249 2.05404 136.289 1.56954 139.315C1.23162 141.425 0.904083 143.516 0.60136 145.615C0.492435 146.37 0.386639 147.127 0.288929 147.891C0.219967 148.428 0.152702 148.98 0.0993271 149.552C-0.248867 153.505 0.352253 157.358 1.35957 160.88C2.44909 164.745 4.02549 168.376 5.90485 171.712C7.65239 174.832 9.68878 177.751 12.1406 180.297C13.1446 181.344 14.2547 182.336 15.5132 183.192C16.4955 183.882 17.6761 184.484 19.0574 184.807C20.5935 185.139 22.1845 185.244 23.7679 185.077C24.8165 184.977 25.527 184.758 25.9337 184.824C26.0634 184.828 26.2058 184.865 26.3344 184.926C26.5564 185.014 26.816 185.236 27.1314 185.512C28.3867 186.654 29.4389 188.258 30.5445 189.848C30.9701 190.466 31.3655 191.136 31.7538 191.824C32.2497 192.706 32.7187 193.609 33.1705 194.511C34.3371 196.841 35.4128 199.216 36.4064 201.47C39.065 207.504 41.5589 213.711 43.4664 218.476V218.476C46.0161 224.844 48.044 230.012 49.5486 233.698C50.3917 235.763 51.0689 237.365 51.5705 238.455C51.8324 239.024 52.0468 239.455 52.2118 239.739C52.296 239.884 52.3673 239.991 52.4257 240.06C52.4765 240.087 52.5081 240.11 52.5284 240.126C52.5439 240.132 52.5526 240.137 52.5574 240.141C52.5598 240.144 52.5613 240.145 52.5621 240.146C52.5632 240.148 52.5632 240.148 52.5632 240.148C52.5632 240.148 52.5632 240.148 52.5637 240.148C52.5629 240.145 52.5632 240.142 52.5638 240.139C52.5651 240.133 52.5686 240.123 52.5772 240.109C52.5838 240.084 52.595 240.047 52.6186 239.994C52.6231 239.904 52.6143 239.776 52.5923 239.609C52.5492 239.283 52.4554 238.811 52.3119 238.2C52.0371 237.03 51.5811 235.351 50.9499 233.207C49.844 229.45 48.1251 224.011 45.9113 217.567C44.2112 212.618 42.0151 206.443 39.4899 200.171C38.5587 197.857 37.5332 195.403 36.3912 192.955C35.949 192.007 35.4786 191.04 34.968 190.073C34.5734 189.325 34.1403 188.551 33.6419 187.783C32.6136 186.173 31.4346 184.341 29.7969 182.72C29.3601 182.278 28.7976 181.828 28.0813 181.446C27.5159 181.158 26.8958 180.977 26.2462 180.919C24.9703 180.851 24.0228 181.055 23.3683 181.128C22.2601 181.233 21.0975 181.125 19.9351 180.857C19.2851 180.729 18.5926 180.316 17.8321 179.811C16.8959 179.162 16.0211 178.341 15.1554 177.425C13.0425 175.18 11.2624 172.528 9.6651 169.624C7.97337 166.528 6.5636 163.197 5.61395 159.701C4.75956 156.502 4.23349 153.176 4.56639 149.978C4.61367 149.493 4.67778 148.992 4.74659 148.472V148.472C4.84341 147.743 4.94936 147.009 5.05952 146.267C5.36589 144.204 5.69683 142.137 6.0386 140.036C6.52854 137.024 7.03326 133.999 7.55165 130.934C8.07531 127.837 8.60729 124.733 9.12922 121.691C12.8753 99.8525 13.9499 93.7831 17.6959 71.9451C20.9773 52.7219 23.6642 36.5463 25.5276 24.575C26.5453 18.0365 27.306 12.8242 27.7636 9.19981C27.9998 7.32866 28.1554 5.87971 28.224 4.8892V4.8892C28.2587 4.38721 28.2712 4.00281 28.2605 3.74067C28.2551 3.60879 28.2439 3.50784 28.2267 3.43842C28.2181 3.4036 28.208 3.37672 28.1964 3.35784C28.1906 3.34838 28.1844 3.34093 28.1778 3.3355C28.1709 3.33107 28.1638 3.32816 28.1564 3.32679L28.1563 3.32684Z" fill="#8F6032"/>
<path d="M26.8966 0.0192554C25.7123 0.427327 35.1917 31.0566 48.0559 68.3881C60.92 105.72 72.3216 135.687 73.5058 135.279C74.69 134.87 65.2107 104.241 52.3465 66.9096C39.4823 29.5781 28.0808 -0.388817 26.8966 0.0192554Z" fill="#8F6032"/>
<path d="M140.585 141.892C140.431 141.559 137.567 142.499 132.637 144.435C128.401 145.829 121.924 147.738 114.516 148.408C111.162 148.715 107.491 148.781 103.722 148.355C103.722 148.355 103.722 148.355 103.722 148.355C100.167 147.954 96.4564 147.109 92.8726 145.633C89.2737 144.155 85.7795 142.025 82.6373 139.273C78.5366 136.442 74.861 132.91 71.6207 128.891C71.5666 128.824 71.5127 128.757 71.4589 128.69C70.694 131.124 69.9453 133.51 69.2055 135.891C68.6934 141.278 67.3596 146.392 65.4297 151.029C64.0798 154.289 62.4401 157.298 60.6031 160.023V160.023C58.2824 163.467 55.6464 166.451 52.9439 168.983C49.1888 172.504 45.2308 175.215 41.7277 177.271C32.5704 182.645 26.187 184.407 26.3345 184.926C26.4819 185.445 33.1493 184.678 43.0787 179.781C46.8831 177.905 51.2001 175.291 55.3802 171.703C58.3855 169.121 61.333 166.015 63.9549 162.355C66.0278 159.46 67.8831 156.239 69.4144 152.724C71.6034 147.676 73.1216 142.084 73.7119 136.163C73.076 134.091 72.4322 132.019 71.7735 129.901C71.8068 129.98 71.8403 130.06 71.8741 130.139C73.8926 134.89 76.5067 139.14 79.7213 142.642C83.2802 145.69 87.2338 148.006 91.306 149.576C95.3577 151.133 99.4661 151.951 103.354 152.251C107.471 152.569 111.389 152.336 114.919 151.832C122.777 150.704 129.265 148.241 133.438 146.31C138.163 143.794 140.738 142.225 140.585 141.892Z" fill="#8F6032"/>
<path d="M144.679 115.438C144.901 115.104 141.347 112.293 134.909 107.628C132.023 105.748 128.382 103.573 124.172 101.497C120.508 99.6905 116.187 97.8483 111.423 96.4829C107.388 95.3211 102.786 94.4492 97.9412 94.56C95.7833 94.612 93.5532 94.8783 91.3291 95.4423C89.1977 95.9839 87.0816 96.8119 85.0811 97.958C83.0418 99.1305 81.1569 100.617 79.4954 102.364C77.6739 104.283 76.1354 106.466 74.8649 108.813C72.2611 114.599 71.2976 121.083 71.1559 127.775C70.7244 127.035 71.179 127.815 70.7475 127.075C69.4959 124.928 68.2683 122.824 67.0365 120.724C64.7793 118.778 62.338 117.072 59.7207 115.702C56.738 114.15 53.5233 113.101 50.2193 112.722C46.3235 112.29 42.4717 112.863 39.0288 114.175C34.2703 116.01 30.3259 119.041 27.1742 122.217C21.9494 127.462 18.153 133.514 15.3595 138.655V138.655C6.68848 154.58 4.26129 165.611 4.85222 165.826C5.44316 166.042 8.99611 155.35 18.1508 140.26C18.1508 140.26 18.1508 140.26 18.1508 140.26C21.1057 135.399 24.9527 129.712 29.9132 125.027C32.909 122.209 36.4657 119.565 40.4993 118.139C43.3723 117.107 46.5652 116.678 49.7055 117.076C52.3984 117.404 55.0863 118.328 57.6491 119.671C59.856 120.818 61.9455 122.289 63.9189 123.987C66.2527 125.664 68.5966 127.341 70.9828 129.047C71.0361 129.085 71.7085 129.565 71.7618 129.604C73.2596 122.786 75.3137 116.419 78.7749 110.913C79.873 108.851 81.1606 106.963 82.6653 105.344C84.0298 103.873 85.5696 102.614 87.2256 101.627C88.8479 100.655 90.6017 99.9319 92.3876 99.4349C94.2558 98.914 96.1844 98.6416 98.0883 98.5435C102.375 98.3172 106.647 99.0051 110.496 99.9506C115.033 101.072 119.27 102.666 122.913 104.228C127.065 106.007 130.769 107.902 133.731 109.501C140.487 113.592 144.457 115.773 144.679 115.438Z" fill="#8F6032"/>
<path d="M19.2686 133.34C19.2865 133.337 19.3047 133.336 19.3233 133.338C19.3419 133.341 19.3609 133.347 19.3803 133.356C19.4191 133.373 19.4596 133.402 19.5017 133.443C19.5854 133.522 19.6759 133.647 19.773 133.813C19.9636 134.138 20.1807 134.628 20.4227 135.262C20.8866 136.478 21.4424 138.228 22.0979 140.4C22.9621 143.264 23.3208 144.519 24.185 147.382C24.8782 149.663 25.6814 152.242 26.5928 154.822C27.3461 156.948 28.1893 159.187 29.2271 161.281C29.5954 162.023 29.9801 162.743 30.4037 163.408C30.4559 163.49 30.5086 163.571 30.5619 163.651C30.971 164.254 31.3543 164.772 31.7693 165.149C32.1108 165.429 32.3539 165.643 32.5165 165.662C32.5738 165.679 32.6223 165.692 32.6492 165.691C32.6776 165.698 32.7341 165.686 32.8039 165.668C33.0304 165.639 33.3409 165.341 33.7389 164.973C34.3219 164.38 34.824 163.58 35.3151 162.736C36.4023 160.804 37.2885 159.141 37.9649 157.423C38.3785 156.278 38.7195 155.433 38.712 154.653C38.7076 154.43 38.7192 154.28 38.696 154.212C38.6957 154.175 38.6992 154.136 38.7105 154.128C38.7227 154.097 38.6556 154.058 38.5526 154.006C38.4191 153.946 38.2233 153.921 37.9985 153.904C37.4094 153.866 36.7288 153.99 36.1142 154.118C35.3443 154.281 34.5702 154.51 33.9723 154.687C32.3895 155.247 31.4128 155.442 31.2484 155.171C31.2469 155.169 31.2471 155.169 31.2474 155.17C31.2477 155.17 31.248 155.171 31.2465 155.168C31.2465 155.168 31.2465 155.168 31.2465 155.168C31.0884 154.894 31.7603 154.18 33.1482 153.102C33.7128 152.707 34.4502 152.252 35.3267 151.843L35.3267 151.843C35.981 151.532 36.8154 151.212 37.8094 151.067C38.1994 151.009 38.6502 150.996 39.1533 151.066C39.5899 151.124 40.064 151.288 40.5419 151.592C41.0071 151.913 41.3808 152.33 41.6301 152.819C41.9091 153.387 42.0565 153.95 42.0937 154.461C42.2151 155.965 41.9402 157.363 41.5341 158.634L41.5341 158.634C40.9297 160.687 40.075 162.655 39.0481 164.713C38.546 165.745 37.8925 166.856 36.9813 167.912C36.401 168.624 35.5478 169.33 34.3741 169.83C33.8941 170.019 33.3656 170.134 32.8012 170.161C32.2582 170.18 31.7324 170.113 31.2384 169.967C30.1686 169.62 29.3201 169.078 28.7002 168.47C27.9148 167.737 27.29 166.944 26.7787 166.157C26.7093 166.052 26.6409 165.946 26.5737 165.841C26.0282 164.98 25.5652 164.11 25.1592 163.259C24.0119 160.858 23.1662 158.425 22.4837 156.169C21.6436 153.402 21.0014 150.726 20.5034 148.319C19.9375 145.585 19.5371 143.093 19.2723 140.999C18.9838 138.718 18.8497 136.863 18.8474 135.552C18.8462 134.867 18.881 134.33 18.9501 133.956C18.9853 133.765 19.0292 133.617 19.0819 133.514C19.1084 133.461 19.1371 133.42 19.168 133.391C19.1834 133.376 19.1995 133.364 19.2161 133.356C19.2332 133.348 19.2507 133.343 19.2686 133.34L19.2686 133.34Z" fill="#8F6032"/>
<path d="M41.5362 115.805C41.5473 115.811 41.5578 115.819 41.5675 115.828C41.5766 115.837 41.5848 115.848 41.5921 115.86C41.6066 115.885 41.6178 115.915 41.6256 115.951C41.641 116.022 41.6435 116.115 41.6338 116.23C41.6148 116.454 41.549 116.762 41.4434 117.148C41.242 117.885 40.8956 118.906 40.4617 120.189C39.7605 122.268 38.5974 125.633 37.92 129.136C37.6334 130.624 37.4024 132.245 37.3884 133.867C37.3834 135.239 37.4995 136.654 37.9234 137.91C38.2901 139.005 38.8879 140.059 39.716 140.813C40.6165 141.695 41.9181 142.294 43.3838 142.708C44.6658 143.041 45.9698 143.279 47.2366 143.304C47.488 143.31 47.7369 143.306 47.9831 143.294C49.1382 143.235 50.2259 143.02 51.1391 142.584C51.9375 142.214 52.6515 141.683 53.198 141.052C53.741 140.435 54.1545 139.687 54.4288 138.904C55.0097 137.236 54.9508 135.382 54.397 133.862C54.1009 133.051 53.6766 132.325 53.1518 131.745C52.577 131.1 51.8555 130.605 51.1057 130.287C50.228 129.932 49.4396 129.682 48.6785 129.59C48.0619 129.516 47.5075 129.52 47.0226 129.639C46.5827 129.739 46.1729 129.929 45.8288 130.171C45.4614 130.424 45.141 130.763 44.8743 131.107C44.2557 131.89 43.8522 132.882 43.6041 133.486C43.328 134.331 43.0775 134.806 42.8673 134.799C42.8649 134.799 42.8649 134.799 42.8652 134.799C42.8654 134.799 42.8656 134.799 42.8632 134.799C42.6532 134.786 42.4969 134.291 42.3951 133.327C42.3673 132.581 42.4586 131.372 43.0397 130.055C43.2891 129.498 43.6541 128.903 44.1796 128.348C44.687 127.819 45.3359 127.35 46.1155 127.026C46.9608 126.684 47.8858 126.51 48.8327 126.516C49.9717 126.519 51.1096 126.714 52.2294 127.054C53.4843 127.433 54.7225 128.109 55.7907 129.108C56.7391 130.002 57.523 131.105 58.0714 132.358C59.0924 134.686 59.3579 137.484 58.5375 140.213C58.1485 141.513 57.5011 142.775 56.5851 143.896C55.6371 145.044 54.4396 145.988 53.0693 146.648C51.5125 147.386 49.8423 147.763 48.1814 147.827C47.8332 147.841 47.486 147.843 47.1401 147.836C45.395 147.797 43.7287 147.496 42.1904 147.055C40.155 146.508 38.2184 145.484 36.6487 143.952C35.2495 142.53 34.347 140.822 33.8851 139.096C33.3815 137.194 33.3174 135.337 33.4613 133.674L33.4613 133.674C33.6231 131.711 34.033 129.892 34.513 128.291C35.6638 124.444 37.3152 121.288 38.5413 119.287C39.2717 118.093 39.9241 117.194 40.4352 116.606C40.704 116.296 40.9335 116.073 41.1185 115.938C41.2128 115.869 41.2951 115.823 41.3649 115.8C41.4 115.789 41.4319 115.783 41.4604 115.784C41.4748 115.784 41.4883 115.786 41.5009 115.789C41.5134 115.793 41.5252 115.799 41.5363 115.805L41.5362 115.805Z" fill="#8F6032"/>
<path d="M57.0943 97.4456C57.2683 97.4118 57.5001 97.4014 57.7834 97.42C58.2817 97.5429 58.6027 97.7283 58.7808 97.9135C59.0548 98.1546 59.2513 98.3918 59.3945 98.6004C59.8081 99.1904 60.0748 99.766 60.2491 100.2C60.5026 100.821 60.6463 101.339 60.7105 101.698C60.7497 101.917 60.7625 102.09 60.752 102.218C60.7463 102.286 60.7341 102.342 60.7155 102.384C60.706 102.407 60.6948 102.425 60.6819 102.44C60.6064 102.48 60.5552 102.507 60.5222 102.524C60.4901 102.541 60.4754 102.549 60.4728 102.551C60.4722 102.551 60.4722 102.551 60.4727 102.551C60.4757 102.549 60.4882 102.542 60.5076 102.531C60.527 102.52 60.5524 102.505 60.5777 102.489C60.5578 102.489 60.5362 102.486 60.5132 102.479C60.4685 102.467 60.4176 102.442 60.3609 102.405C60.2542 102.336 60.1259 102.224 59.9748 102.071C59.6974 101.791 59.4101 101.449 58.9835 100.962C58.6975 100.637 58.3184 100.202 57.9305 99.8738C57.7878 99.7551 57.6514 99.6493 57.5281 99.5952C57.4252 99.5659 57.3979 99.551 57.4688 99.6049C57.6652 99.6087 57.7566 99.6239 57.732 99.6139C57.7196 99.6285 57.6796 99.6775 57.6016 99.7449C57.3789 99.951 57.1756 100.2 56.8991 100.52C56.0815 101.483 55.4099 102.352 54.5923 103.315C53.7158 104.347 52.6465 105.536 51.4069 106.666C50.3691 107.625 49.0679 108.65 47.4556 109.421C46.9021 109.696 46.2072 109.951 45.3615 110.081C45.2089 110.106 45.0497 110.121 44.8846 110.125C44.3991 110.138 43.8642 110.056 43.2993 109.857C42.6459 109.58 42.1292 109.208 41.7592 108.794V108.794C41.3602 108.359 41.0665 107.947 40.8451 107.594C40.302 106.776 39.88 106.036 39.4314 105.558C38.8802 104.931 38.1488 104.43 37.3504 104.118C36.9106 103.967 36.5851 103.847 36.3903 103.87C36.3092 103.889 36.2801 103.879 36.3702 103.87C36.406 103.824 36.3708 103.904 36.248 104.037C36.0999 104.229 35.954 104.534 35.7626 104.917C35.7626 104.917 35.7626 104.917 35.7626 104.917C35.2896 105.909 34.8225 107.071 34.1463 108.299C33.3051 109.823 32.1936 111.238 30.806 112.417C30.1932 112.941 29.486 113.457 28.6611 113.904C28.0495 114.242 27.328 114.513 26.5071 114.664H26.5071C25.8033 114.78 25.1052 114.772 24.4375 114.651C23.7853 114.526 23.2245 114.342 22.7518 114.142C21.6668 113.698 20.8096 113.235 20.0727 112.973C19.0283 112.586 17.9115 112.397 16.8118 112.381C16.4814 112.318 15.9838 112.543 15.4294 112.824C14.7144 113.225 14.0305 113.854 13.36 114.532C11.5973 116.336 10.1162 118.597 8.92081 120.473C7.89569 122.091 6.97303 123.667 6.23317 124.928C5.87052 125.546 5.56013 126.074 5.26707 126.562C4.74316 127.434 4.33019 128.082 4.00586 128.515C3.83092 128.749 3.6825 128.918 3.55953 129.024C3.49567 129.079 3.43846 129.117 3.38789 129.137C3.3621 129.148 3.338 129.154 3.31559 129.156C3.30428 129.157 3.29337 129.157 3.28292 129.155C3.26122 129.153 3.24145 129.145 3.22335 129.133C3.21458 129.127 3.20626 129.12 3.19836 129.112C3.18263 129.095 3.16865 129.074 3.15638 129.049C3.13212 128.999 3.11466 128.932 3.1041 128.848C3.08352 128.683 3.08931 128.454 3.12281 128.161C3.18599 127.609 3.34771 126.832 3.62246 125.847C4.08007 124.206 4.91514 121.762 6.21467 118.982C7.15054 116.966 8.50635 114.35 10.4884 111.95C11.1223 111.175 11.8979 110.367 12.8618 109.648C12.9887 109.554 13.1188 109.461 13.2522 109.37C14.1554 108.726 15.3414 108.237 16.7635 108.149C18.3392 108.09 19.9547 108.299 21.5215 108.807C22.6669 109.19 23.6109 109.652 24.4223 109.955C24.7472 110.07 25.0114 110.158 25.2139 110.178C25.3975 110.201 25.5774 110.199 25.7282 110.163C25.9311 110.133 26.1872 110.012 26.491 109.854C26.918 109.624 27.356 109.279 27.8316 108.88C28.7315 108.119 29.4852 107.122 30.109 106.022C30.6118 105.14 31.0494 104.054 31.6317 102.881C31.8585 102.406 32.1603 101.862 32.5824 101.287V101.287C32.9407 100.772 33.4904 100.265 34.2405 99.8377C35.0776 99.4303 35.9077 99.2795 36.6627 99.3464C37.6498 99.4367 38.4623 99.6898 39.0967 99.9885V99.9885C40.5455 100.616 41.8077 101.578 42.7854 102.778C43.5371 103.737 44.0357 104.661 44.4469 105.38C44.6252 105.67 44.7422 105.881 44.8414 105.988C44.9157 106.056 44.917 106.093 44.8539 106.052C44.7632 106.055 44.8037 106.045 44.9219 106.064C45.1497 106.072 45.4861 105.954 45.9076 105.808C47.0148 105.4 48.1022 104.665 49.1274 103.907C50.2762 103.046 51.3875 102.054 52.3729 101.157C53.3973 100.224 54.1293 99.5105 55.1096 98.6896C55.4385 98.41 55.7995 98.1198 56.2303 97.8474C56.3753 97.7506 56.5772 97.6414 56.8348 97.5369C56.8963 97.4981 56.9834 97.4672 57.0943 97.4457L57.0943 97.4456Z" fill="#8F6032"/>
<path d="M58.4219 90.7112C58.8355 90.8038 59.9646 87.5783 61.5826 81.9057C62.1593 80.1188 62.9153 77.7757 63.846 75.6515C64.1694 74.9194 64.5074 74.1883 64.9148 73.579C65.0607 73.3652 65.1877 73.1874 65.3098 73.0752C65.4177 72.9995 65.4268 72.9711 65.3433 73.0472C65.9484 72.7978 66.5264 72.5652 67.0573 72.4489C67.4509 72.4014 67.6843 72.3262 67.6709 72.3959C67.5126 72.3234 67.4517 72.3217 67.4134 72.2581C67.5157 72.3843 67.4729 72.7666 67.5014 73.3418C67.512 74.1992 67.674 74.9188 67.8732 75.4861C68.1274 76.2898 68.4456 77.0435 68.7938 77.7594C69.603 79.4341 70.6038 81.0519 71.7731 82.6019C72.814 84.0055 74.0824 85.4587 75.7022 86.6897C76.3165 87.1674 77.0802 87.6279 78.0143 87.9664C78.768 88.269 79.7421 88.3579 80.8515 88.0968C81.6327 87.8684 82.3239 87.5761 82.9404 87.2769C83.7871 86.8734 84.5994 86.4236 85.3846 85.9436L85.3846 85.9435C87.2637 84.7981 89.0746 83.4425 90.7499 81.8708C92.4549 80.288 94.0692 78.3925 95.2786 76.1259C95.8414 75.0662 96.2964 73.8988 96.5764 72.6411C96.646 72.3258 96.7024 72.0061 96.7447 71.6829C96.8687 70.7374 96.872 69.7705 96.7442 68.807C96.5031 67.0352 96.3305 65.1737 96.0017 63.267C95.7499 61.6759 95.2878 59.9783 94.3708 58.3404C93.3225 56.5931 91.8555 55.2862 90.2756 54.4046C87.9111 53.0828 85.4302 52.3866 83.1798 51.9058C77.5253 50.6099 71.9559 51.0129 67.3028 53.0819C62.6553 55.1878 59.603 58.8904 58.1918 62.551C55.0731 71.615 53.4547 77.1457 53.9665 77.3495C53.9684 77.3503 53.9684 77.3503 53.9681 77.35C53.968 77.3499 53.9679 77.3499 53.9697 77.3505C53.9697 77.3505 53.9697 77.3505 53.9697 77.3505C54.4903 77.5314 57.0537 72.3577 60.8787 63.6453C62.2424 60.7649 64.958 57.9615 68.7474 56.4687C72.5989 54.9099 77.281 54.8362 82.2091 56.0304C84.2989 56.5707 86.3871 57.172 88.0708 58.2009C89.0971 58.8328 90.0084 59.6257 90.5031 60.563C91.045 61.4633 91.3088 62.6628 91.5583 64.0219C91.8382 65.6966 91.9928 67.5032 92.2494 69.4143C92.3247 69.9532 92.3188 70.52 92.2433 71.0906C92.2175 71.2857 92.1837 71.4807 92.1424 71.6745C91.9767 72.4613 91.6625 73.2509 91.2655 74.023C90.4058 75.7051 89.1009 77.2245 87.6662 78.619C86.2432 79.9853 84.6884 81.1836 83.0663 82.215C82.3885 82.6445 81.7162 83.036 81.0394 83.3747C80.5163 83.6306 80.0576 83.848 79.6384 83.9726C79.73 84.011 79.6048 83.9552 79.3642 83.9256C79.0271 83.8393 78.6347 83.5925 78.1837 83.2921C77.0051 82.4789 75.9585 81.3219 74.966 80.1148C73.8915 78.7838 72.9683 77.4212 72.2182 76.022C71.8988 75.4219 71.6226 74.855 71.4207 74.2974C71.2788 73.8463 71.1548 73.5349 71.1654 73.3416C71.194 72.6129 71.0671 71.6827 70.6062 70.6744V70.6744C70.1941 69.8569 69.4499 69.2645 68.4907 68.9986C67.5006 68.8325 66.7115 68.9515 66.1607 69.1614C65.3265 69.4175 64.6 69.7529 63.9707 70.0732C63.4586 70.3471 63.1137 70.6453 62.9103 70.9153C62.6055 71.2775 62.377 71.631 62.2017 71.9535C61.7011 72.8599 61.3541 73.7638 61.078 74.5782C60.2414 77.0165 59.7039 79.4597 59.3268 81.3609C58.3629 87.2181 58.0081 90.6184 58.4218 90.711L58.4219 90.7112Z" fill="#8F6032"/>
<path d="M46.9014 73.361C52.6469 77.9196 55.2412 80.2942 54.9971 80.643V80.643C54.9916 80.6505 54.995 80.6461 54.995 80.646C54.6743 81.061 50.0515 78.4055 41.7041 72.9694C39.0538 71.349 35.2548 70.4334 31.1902 71.2762C30.4944 71.4138 29.7968 71.6015 29.0985 71.8399C25.6653 73.0122 22.4568 75.3325 19.6887 78.2849C18.2101 79.911 16.8126 81.5429 15.9744 83.3123C15.4568 84.4143 15.1349 85.5735 15.2339 86.6209C15.2741 87.6763 15.7161 88.8326 16.2463 90.0926C16.9369 91.6632 17.7991 93.2614 18.6226 94.9822C18.9359 95.6461 19.3988 96.2676 19.9504 96.8144C20.5179 97.3798 21.2119 97.8683 21.9706 98.2988C23.6006 99.2289 25.5155 99.7874 27.4997 100.172C29.4254 100.533 31.3812 100.686 33.3181 100.66C34.118 100.648 34.8955 100.607 35.6492 100.52C36.2255 100.447 36.7294 100.378 37.1489 100.252C37.0936 100.334 37.1675 100.219 37.3529 100.062C37.5873 99.8056 37.78 99.3851 37.9933 98.8853C38.5316 97.564 38.7739 96.0288 38.9438 94.4642C39.1123 92.7718 39.1396 91.1248 38.9996 89.5349C38.9381 88.8598 38.8585 88.2334 38.7216 87.6554C38.5934 87.2014 38.5262 86.872 38.4114 86.7162C37.9894 86.124 37.5849 85.2765 37.4176 84.1783C37.3145 83.2697 37.6114 82.3659 38.2693 81.6166C39.0057 80.936 39.7309 80.6023 40.3081 80.4758C41.1448 80.2334 41.9352 80.1157 42.6399 80.0386C43.218 79.9872 43.6703 80.0475 43.9888 80.1621C44.4418 80.298 44.8267 80.4684 45.1506 80.6424C46.0633 81.1252 46.8477 81.6896 47.5286 82.2227C49.079 83.4272 50.46 84.7065 51.6289 85.8552C52.0064 86.2263 52.3689 86.5908 52.7093 86.938C61.3794 96.3786 60.2177 96.494 51.1204 88.6298C49.6922 87.4784 47.7536 85.913 45.8 84.6386C45.1326 84.2061 44.4469 83.7777 43.7706 83.4904C43.5319 83.3917 43.328 83.3124 43.1644 83.2855C43.0328 83.2813 43.0095 83.2625 43.1213 83.2803C42.4817 83.4025 41.8686 83.5248 41.3598 83.7187C41.0054 83.8942 40.7681 83.9592 40.8177 84.0102C40.9103 83.863 40.9606 83.8279 40.9576 83.7534C40.9412 83.915 41.1851 84.2092 41.4775 84.708C41.9375 85.4297 42.1967 86.12 42.3412 86.7057C42.4661 87.1508 42.567 87.5953 42.6494 88.0382C42.7168 88.4001 42.7714 88.7584 42.8166 89.1118C43.0599 90.978 43.1047 92.8818 42.9773 94.7951C42.8743 96.563 42.6053 98.4656 41.9301 100.368C41.6769 101.107 41.2895 101.91 40.6956 102.702C40.2292 103.371 39.4617 103.978 38.3935 104.366C37.6127 104.603 36.8735 104.737 36.1968 104.825C35.2635 104.951 34.3368 105.02 33.4217 105.048C31.1953 105.121 28.9393 104.973 26.7019 104.581C24.3741 104.185 21.9955 103.477 19.7658 102.256V102.256C18.7073 101.674 17.6888 100.946 16.7708 100.052C15.8635 99.1661 15.0968 98.1163 14.5299 96.9367C13.7665 95.334 12.8909 93.683 12.1159 91.8952C11.4594 90.4362 10.9121 88.7609 10.7813 86.8805C10.7013 84.8544 11.2066 82.9582 12.0507 81.3447C13.2979 78.956 14.9817 77.0187 16.6173 75.3666C20.571 71.2532 25.4355 68.4827 30.543 67.6504L30.543 67.6504C35.4468 66.8867 40.0998 68.2419 43.3534 70.5799C44.6167 71.5597 45.8023 72.4888 46.9015 73.361H46.9014Z" fill="#8F6032"/>
<path d="M55.8701 30.2514C55.8827 30.2616 55.8958 30.2705 55.9101 30.2786C55.9234 30.2861 55.9374 30.2926 55.9522 30.2981C55.9811 30.309 56.0127 30.316 56.0471 30.3192C56.1133 30.3249 56.1893 30.3156 56.2746 30.2906C56.4274 30.246 56.6145 30.1473 56.8164 29.9824C57.1083 29.7593 57.5455 29.2978 57.7059 28.4366C57.7607 28.0708 57.7148 27.6351 57.4864 27.1712C57.2125 26.6982 56.8385 26.3171 56.4193 26.1011C55.2046 25.442 53.8277 25.2593 52.5448 25.3421C51.2562 25.3383 49.6858 25.4511 48.0221 25.9202C46.8837 26.2278 45.6299 26.8071 44.4786 27.8247C43.491 28.7525 42.7737 29.929 42.4113 31.2369C42.2888 31.6969 42.2001 32.1553 42.1411 32.6096C42.0078 33.6362 42.0306 34.608 42.1355 35.4878C42.273 36.9728 42.7503 38.4113 43.5455 39.6748C44.2395 40.7525 45.1467 41.5976 46.1419 42.1944C47.0279 42.7275 47.9787 43.0504 48.9161 43.1829C49.5784 43.3269 50.4403 43.2864 51.3456 42.9742C52.4245 42.4441 53.4415 42.0088 54.2287 41.5908C55.4591 40.9444 56.1181 40.397 56.0287 40.0187V40.0187C56.0274 40.0131 56.0274 40.0136 56.0277 40.0141C56.0278 40.0146 56.0279 40.0149 56.0263 40.0094V40.0094C55.9247 39.6341 55.0852 39.4723 53.6853 39.5022C52.8539 39.5222 51.6317 39.6143 50.3169 39.8882C50.2815 39.8898 50.0786 39.75 49.6661 39.6648C49.221 39.5026 48.7758 39.2402 48.3561 38.8966C47.9067 38.5236 47.5076 38.0333 47.2227 37.4748C46.8737 36.8258 46.6894 36.0069 46.6152 35.0926C46.5823 34.4122 46.5672 33.7521 46.6346 33.17C46.6645 32.9109 46.7105 32.669 46.7774 32.4447C46.9326 31.8814 47.1954 31.3707 47.5394 31.0247C47.9393 30.5595 48.633 30.1963 49.3644 29.8686C50.4645 29.3998 51.7656 29.1065 52.8968 28.8622C54.1844 28.6867 54.7098 28.4117 55.3177 28.5545C55.4169 28.571 55.4823 28.5186 55.4819 28.4694C55.5034 28.3924 55.5536 28.4018 55.6089 28.44C55.7603 28.606 55.7222 29.0538 55.7142 29.3536C55.7044 29.5619 55.6985 29.7379 55.7144 29.8861C55.723 29.9664 55.7389 30.0374 55.7625 30.0968C55.7747 30.1281 55.7895 30.1566 55.8066 30.1818C55.8154 30.1947 55.8249 30.2069 55.835 30.2181C55.846 30.2303 55.8574 30.2412 55.8701 30.2514V30.2514Z" fill="#8F6032"/>
<path d="M68.1521 54.3431C68.1654 54.3533 68.1798 54.3615 68.1958 54.3681C68.2111 54.3745 68.2276 54.3792 68.2453 54.3822C68.2804 54.3881 68.3199 54.3873 68.3641 54.38C68.4511 54.3652 68.5546 54.3241 68.6736 54.2564C68.9006 54.1271 69.1828 53.8991 69.4979 53.566C70.0526 52.9807 70.7679 52.0017 71.3228 50.6417V50.6416C71.809 49.4569 72.1882 47.8749 72.038 46.0522C71.8636 44.2327 71.1431 42.3093 69.7885 40.6246C67.7325 37.9668 64.3774 35.3844 59.9761 34.7889C58.4484 34.5747 56.7285 34.726 55.0451 35.4655C55.0048 35.4832 54.9646 35.5012 54.9245 35.5195C53.2689 36.3334 52.043 37.7169 51.4115 39.36C51.0554 40.3172 50.6293 41.3216 50.227 42.2954C49.9407 42.9528 49.6132 43.751 49.3935 44.7426C49.1883 45.6088 49.2647 46.599 49.6643 47.5961C50.2373 48.7141 50.9473 49.4262 51.5512 49.8637C53.2675 51.2809 55.1062 52.279 56.9621 52.8359C57.7825 53.1178 58.7607 53.2573 59.8012 53.1132C60.2663 53.0488 60.7487 52.8524 61.2018 52.5331C61.6776 52.1612 61.9819 51.7111 62.1406 51.2495C62.6346 49.6606 62.5764 48.2312 62.4591 47.3633C62.385 46.787 62.2684 46.3373 62.142 46.0316C62.0733 45.8653 62.0013 45.7393 61.928 45.6545C61.8901 45.6101 61.8523 45.5771 61.8143 45.5556C61.7574 45.5467 61.7278 45.5393 61.7125 45.5341C61.6975 45.5289 61.6963 45.5258 61.6962 45.5254C61.6962 45.5253 61.6962 45.5254 61.6962 45.5254C61.6962 45.5254 61.6962 45.5253 61.6962 45.5254C61.6961 45.5259 61.6951 45.529 61.6808 45.5355C61.666 45.5422 61.6372 45.5523 61.5813 45.5664C61.5453 45.5901 61.5095 45.624 61.4743 45.6673C61.4063 45.7521 61.3385 45.8746 61.27 46.0313C61.1418 46.3247 61.0127 46.7292 60.8538 47.2393C60.6229 47.9706 60.2558 49.259 59.6771 50.1937C59.6281 50.217 59.5929 50.2234 59.6029 50.1667C59.6131 50.147 59.5589 50.1173 59.4627 50.1162C59.1406 50.1252 58.7429 49.9167 58.1242 49.6702C56.8057 49.0611 55.5312 48.1231 54.2054 46.8556C53.807 46.4084 53.4819 46.1133 53.4991 45.9445C53.4852 45.9813 53.5375 45.8643 53.5681 45.6783C53.6628 45.2674 53.9328 44.7663 54.2453 44.061C54.689 43.1098 55.1683 42.0734 55.6048 40.9833C55.8308 40.411 56.3263 39.8653 56.8944 39.6079C56.9099 39.5994 56.9257 39.591 56.9416 39.5828C57.6034 39.2422 58.5339 39.195 59.4797 39.2559C62.319 39.466 64.971 41.3108 66.8306 43.1828C67.8367 44.2272 68.4992 45.403 68.7828 46.5539C69.0924 47.7198 69.0511 48.9555 68.9201 49.9674C68.7659 51.1205 68.4587 52.179 68.2766 52.8649C68.1699 53.2649 68.0906 53.592 68.0605 53.8348C68.0447 53.9622 68.0427 54.0689 68.0561 54.1527C68.0629 54.1958 68.074 54.2332 68.0894 54.2647C68.0973 54.2806 68.1063 54.295 68.1165 54.3079C68.1271 54.3214 68.1388 54.3331 68.1521 54.3432V54.3431Z" fill="#8F6032"/>
<path d="M47.682 18.7564C47.0005 18.46 45.7762 19.6119 44.4952 21.5415C43.9671 22.0657 43.4096 22.6172 42.9033 22.7834C42.696 22.8717 42.5061 22.9368 42.3706 22.9344C42.257 22.9497 42.1002 22.9289 41.9235 22.8904C41.899 22.8851 41.8742 22.8794 41.8493 22.8735C40.1269 22.4498 38.316 21.3349 36.992 20.582C35.4674 19.5039 34.1876 18.9766 33.6717 19.3832C33.6717 19.3832 33.6717 19.3832 33.6717 19.3832C33.6677 19.3864 33.6678 19.3864 33.6679 19.3863C33.6679 19.3862 33.668 19.3862 33.664 19.3894H33.664C33.1524 19.8081 33.5204 21.0964 34.6017 22.9205C35.6641 24.4291 37.6424 26.318 40.6028 27.2363C40.7009 27.2656 40.8005 27.292 40.9014 27.3157C41.6306 27.4864 42.3998 27.5009 43.1664 27.3578C44.0011 27.1805 44.7108 26.845 45.2835 26.4228C46.5932 25.3952 47.3217 24.2015 47.7159 23.2205C48.3441 20.7509 48.367 19.0543 47.682 18.7564L47.682 18.7564Z" fill="#8F6032"/>
<path d="M31.9435 50.0499C31.5617 50.1128 31.2186 50.1639 30.895 50.2027C29.4372 50.3837 28.6545 50.2812 28.5205 49.9409C28.5173 49.9324 28.5175 49.9329 28.5172 49.932C28.3914 49.5794 28.9451 48.9781 30.1492 48.177C30.8189 47.734 31.877 47.1055 33.1354 46.5711C33.1648 46.5526 33.2491 46.3252 33.5423 46.0169C33.6293 45.8936 33.711 45.7614 33.7869 45.6206C33.9492 45.3195 34.0807 44.9875 34.18 44.6388C34.3394 44.0643 34.3824 43.4334 34.2993 42.8244C34.2138 42.0773 33.8877 41.2942 33.4388 40.5215C32.9032 39.6656 32.3897 38.9148 31.7948 38.4395C31.3525 38.0708 30.8449 37.7967 30.3586 37.7077C29.7697 37.5552 29.0012 37.649 28.2 37.8001C27.0399 38.0411 25.8224 38.5337 24.7254 38.9908C24.7254 38.9908 24.7254 38.9908 24.7254 38.9908C23.5994 39.5657 22.977 39.6582 22.5618 40.1189C22.5378 40.1422 22.5118 40.1573 22.4871 40.1654C22.4385 40.1813 22.3968 40.1698 22.3782 40.1425C22.3162 40.0912 22.2804 40.1286 22.257 40.1908C22.2272 40.4148 22.5224 40.7704 22.6919 41.0009C22.8212 41.1693 22.9248 41.3085 22.9957 41.4379C23.0349 41.5092 23.0622 41.5763 23.0766 41.6379C23.0845 41.6705 23.0887 41.7022 23.089 41.7324C23.0892 41.7479 23.0882 41.7632 23.0864 41.7781C23.0823 41.8104 23.0736 41.8406 23.0594 41.8699C23.0528 41.8836 23.0451 41.8968 23.0362 41.9097C23.0187 41.935 22.9968 41.9586 22.9704 41.9808C22.9195 42.0231 22.852 42.0588 22.7673 42.0872C22.6178 42.1375 22.4083 42.1643 22.1464 42.1445C21.7882 42.129 21.1619 42.0056 20.5327 41.3848C20.5327 41.3848 20.5327 41.3848 20.5327 41.3848C20.2804 41.1175 20.0679 40.7342 19.9901 40.2204C19.9453 39.679 20.0332 39.1514 20.2556 38.732C20.8652 37.5206 21.8748 36.5792 23.0049 35.898C23.2793 35.7063 23.5727 35.5109 23.8841 35.3174C24.7999 34.7482 25.8529 34.2051 27.049 33.7922C28.1884 33.3847 29.5465 33.1584 31.0458 33.334C32.4126 33.5361 33.6671 34.106 34.6906 34.9562C35.8829 35.9673 36.7329 37.143 37.3424 38.29C38.0651 39.5674 38.5045 41.0188 38.5737 42.5326C38.6185 43.8 38.3624 45.0125 37.8802 46.0834C37.461 47.0182 36.8679 47.8283 36.1667 48.4788C35.7093 48.9706 34.9808 49.432 34.0522 49.6943C33.3105 49.8067 32.6 49.9418 31.9435 50.0499H31.9435Z" fill="#8F6032"/>
<path d="M29.5491 62.3513C28.4321 61.3773 27.7664 60.3046 27.4169 59.6218C26.9018 58.475 26.783 57.8531 27.0026 57.6982C27.0095 57.6936 27.0087 57.6941 27.0094 57.6936C27.2398 57.5458 27.8198 57.8802 28.6901 58.6397C29.2719 59.0877 30.3237 59.9461 31.3307 60.3749C31.3838 60.3659 31.4165 60.3511 31.3756 60.3102C31.3559 60.2998 31.3827 60.2448 31.4614 60.1888C31.7304 60.0129 31.9338 59.6215 32.306 59.0594C32.6727 58.4349 32.9929 57.7336 33.2687 56.9397C33.5336 56.1772 33.7449 55.3657 33.9184 54.5122C33.9913 53.91 34.0888 53.4896 33.9785 53.361C34.0112 53.3834 33.9002 53.3161 33.7699 53.1818C33.4578 52.8985 32.9405 52.6352 32.2909 52.2401C31.3644 51.7009 30.391 51.1296 29.4181 50.4886C28.896 50.1409 28.1766 49.9843 27.5743 50.0949C26.8285 50.1748 26.0223 50.6673 25.25 51.2809C23.0869 53.0338 21.9348 55.9801 21.4552 58.7009C21.2289 60.1118 21.3462 61.4589 21.7765 62.5827C22.0979 63.5564 22.6869 64.4319 23.2958 65.1507C23.3692 65.2374 23.443 65.3219 23.5166 65.404C28.3295 68.9658 27.7404 69.7699 22.1161 67.4508C21.0518 66.7631 19.7924 65.6654 18.8153 64.0292C18.2261 62.9797 17.7953 61.743 17.6224 60.3661C17.5371 59.6873 17.5168 58.9904 17.566 58.2881C17.7483 54.7241 19.1454 50.7813 22.2936 47.8963C23.4753 46.803 25.0265 45.945 26.8588 45.6136C28.6608 45.3407 30.4603 45.7615 31.935 46.763C32.772 47.3449 33.6814 47.9179 34.5827 48.4978C35.1873 48.8708 35.9148 49.3404 36.6637 50.0316C37.3235 50.623 37.8278 51.4779 38.0697 52.529C38.2366 53.7687 38.0627 54.7585 37.8147 55.4678C37.2239 57.5775 36.2941 59.4558 35.0683 60.9969C34.5604 61.6899 33.8383 62.366 32.8946 62.845C32.4775 63.0566 31.9696 63.1714 31.413 63.1677C30.8124 63.1339 30.3052 62.9392 29.9093 62.6491C29.7838 62.5508 29.6638 62.4513 29.5491 62.3513L29.5491 62.3513Z" fill="#8F6032"/>
<path d="M33.6724 21.8033C33.8224 21.5145 33.9631 21.2651 34.1001 21.0536C34.2707 20.7902 34.4361 20.5892 34.5955 20.453C34.6796 20.3811 34.764 20.3269 34.8465 20.2907C34.8888 20.2726 34.9316 20.2587 34.9737 20.2495C35.0384 20.2453 35.072 20.2418 35.0893 20.2394C35.1062 20.237 35.1078 20.2356 35.108 20.2354C35.108 20.2353 35.108 20.2354 35.108 20.2354C35.108 20.2356 35.1093 20.2369 35.1252 20.24C35.1417 20.2431 35.174 20.2476 35.237 20.254C35.2791 20.2658 35.3205 20.2832 35.3619 20.3063V20.3063C35.4434 20.3509 35.5223 20.4161 35.5994 20.5023C35.7477 20.6681 35.8845 20.9106 36.0019 21.2293C36.2152 21.8077 36.3658 22.6588 36.3482 23.7394C36.3458 24.0886 36.325 24.4667 36.2789 24.8687C36.0661 26.7259 35.3455 28.8004 33.8928 30.6391C33.3698 31.2939 32.6782 31.8319 31.8567 32.2013C31.0786 32.5283 30.305 32.6616 29.5848 32.6415C27.9523 32.5469 26.6713 32 25.7595 31.4014C25.0927 30.8237 24.5227 30.2663 24.0824 29.7508C21.9586 27.2644 23.6544 26.6778 27.4467 28.1837C27.5126 28.1953 27.579 28.207 27.6448 28.2183C28.3494 28.3397 29.0025 28.4327 29.4625 28.2953C29.6879 28.2485 29.8777 28.1936 29.9862 28.1153C30.1038 28.055 30.2412 27.9222 30.3796 27.7679C31.5521 26.4103 32.344 24.5645 33.0701 23.0454C33.2786 22.5976 33.4792 22.1754 33.6724 21.8033H33.6724Z" fill="#8F6032"/>
<path d="M103.85 151.281C102.936 151.675 111.468 173.152 124.464 202.884C125.037 202.41 125.613 201.933 126.192 201.452V201.452C121.306 203.127 107.994 207.664 103.108 209.339C94.4547 212.297 86.4155 215.059 78.6356 217.776C67.0224 189.29 57.7753 168.932 56.8632 169.319C55.951 169.706 64.3877 191.044 77.4009 220.625C85.4535 217.532 93.8425 214.265 102.876 210.732C117.74 204.919 112.071 207.132 126.935 201.32C126.769 200.838 126.603 200.361 126.436 199.887C114.305 171.336 104.763 150.888 103.85 151.281Z" fill="#8F6032"/>
<path d="M75.5685 210.071C75.5685 209.982 75.5111 209.947 75.3979 209.889C75.3278 209.859 75.2436 209.839 75.1427 209.823C74.9497 209.794 74.7151 209.793 74.4206 209.808C73.8473 209.84 73.1766 209.936 72.273 210.067C70.8644 210.271 68.5756 210.636 66.3793 210.619C64.5734 210.584 62.4053 210.363 60.8049 209.378C60.0557 208.944 59.3614 208.339 58.8129 207.607C58.1705 206.774 57.7054 205.716 57.35 204.522C56.9518 203.144 56.5267 201.72 56.0722 200.282C55.5592 198.66 55.0299 197.088 54.4696 195.554C53.4725 192.815 52.428 190.336 51.16 188.014C50.0425 185.924 48.7767 184.117 47.1531 182.676C46.4197 182.024 45.5988 181.503 44.7208 181.146C43.7964 180.776 42.8558 180.662 42.0064 180.735C40.0273 180.956 37.9054 181.389 37.5134 181.528C37.4179 181.558 37.3423 181.609 37.2986 181.637C37.2196 181.468 37.3255 181.794 37.3431 181.837C37.2469 181.973 37.2401 181.948 37.2403 181.907C37.2353 181.858 37.2346 181.829 37.2354 181.813C37.2359 181.803 37.2367 181.797 37.2378 181.794C37.2388 181.791 37.2399 181.79 37.2402 181.79C37.2402 181.79 37.2402 181.79 37.2402 181.79C37.2402 181.79 37.2402 181.79 37.2401 181.79C37.2399 181.79 37.2383 181.789 37.2357 181.787C37.2331 181.785 37.2291 181.78 37.2231 181.772C37.2129 181.758 37.1976 181.734 37.1743 181.692C37.1553 181.664 37.1077 181.641 37.0067 181.813C37.0509 181.964 37.1554 182.174 37.1666 182.085C37.2391 182.16 37.3267 182.214 37.4263 182.276C38.2355 182.772 39.6078 183.009 42.0064 183.289C42.4726 183.362 42.9613 183.549 43.4237 183.845C43.8877 184.135 44.3215 184.551 44.7821 185.078C45.8576 186.305 46.6196 187.815 47.5399 189.817C48.5288 192.028 49.3428 194.324 50.2503 197.03C50.7527 198.533 51.2398 200.052 51.7449 201.65C52.2258 203.172 52.5772 204.299 53.0581 205.821C53.556 207.447 54.3469 208.987 55.4468 210.318C56.437 211.496 57.6391 212.401 58.9273 213.018C61.701 214.287 64.4903 214.303 66.6275 213.976C69.2815 213.595 71.4832 212.736 72.8913 212.05C73.7209 211.648 74.3852 211.248 74.8199 210.935C75.0533 210.767 75.2382 210.607 75.3581 210.482C75.4225 210.415 75.4714 210.349 75.504 210.295C75.5444 210.244 75.5686 210.106 75.5686 210.071H75.5685Z" fill="#8F6032"/>
</svg>
