<svg width="43" height="64" viewBox="0 0 43 64" fill="none" xmlns="http://www.w3.org/2000/svg">
<path d="M0.599365 54.4777C1.07947 53.5274 3.96017 49.7856 6.48078 49.2511C9.00145 48.7166 23.2851 49.1323 24.7254 49.2511C26.1658 49.3699 29.5266 49.6075 30.6068 49.8451C31.6871 50.0826 37.5086 51.5674 38.6489 52.2207C39.7892 52.8741 42.2498 54.7153 42.4298 55.3092C42.6099 55.9031 42.4298 59.2291 38.6489 60.417C34.868 61.6048 27.6062 62.7927 23.2851 63.0303C18.964 63.2678 12.0623 63.2085 9.06149 61.9018C6.06072 60.5952 3.54007 60.3576 2.15969 58.8134C0.779379 57.2692 0.599365 54.4777 0.599365 54.4777Z" fill="#EDEAEA"/>
<path d="M16.712 49.0139C16.7257 49.2635 13.8178 49.6544 8.90222 50.1109C7.36084 50.4313 5.39992 50.8982 3.85758 51.8965C3.2784 52.271 2.72899 52.7197 2.38932 53.2632C2.07501 53.742 1.90357 54.3467 1.91913 54.9531C1.92482 55.5288 2.16161 56.1367 2.54817 56.6428C2.97927 57.2202 3.62194 57.6912 4.36366 58.1326C6.15611 59.1849 8.25777 59.7605 10.6203 60.2747C12.8705 60.7531 15.2077 61.0675 17.6683 61.2841C18.9036 61.3916 20.156 61.4842 21.3993 61.5167C21.709 61.5248 22.0171 61.5292 22.3238 61.5292C23.7963 61.5304 25.254 61.4832 26.6869 61.4014C29.0206 61.2669 31.2302 61.047 33.3651 60.6631C35.5669 60.2518 37.5184 59.7995 39.1516 58.8409C39.7988 58.4522 40.3529 58.0421 40.6769 57.5377C40.9821 57.1008 41.1164 56.5347 41.0653 56.0155C41.0111 55.3972 40.7583 54.7938 40.3951 54.2923C39.9865 53.7194 39.4021 53.2435 38.7938 52.8416C37.2303 51.805 35.3128 51.2332 33.7926 50.8373C29.1319 50.1451 26.3595 49.6168 26.3603 49.3719C26.3604 49.3702 26.3604 49.3702 26.3604 49.3702C26.3604 49.3703 26.3603 49.3704 26.3604 49.3685C26.3866 49.1262 29.1902 49.2036 34.006 49.5396C35.6316 49.8177 37.736 50.3058 39.6842 51.4148C40.4389 51.8459 41.2045 52.4242 41.8378 53.204C42.4111 53.9184 42.8242 54.8056 42.9633 55.7914C43.0889 56.7385 42.8934 57.7368 42.354 58.6026C41.7947 59.4606 41.0333 60.1116 40.219 60.5942C38.2552 61.7802 36.0588 62.3817 33.7788 62.8145C31.5321 63.2557 29.2255 63.5156 26.8276 63.6687C25.3537 63.7635 23.8494 63.8183 22.3238 63.8192C21.9953 63.8193 21.6668 63.8147 21.3383 63.8061C20.0188 63.7718 18.7184 63.6733 17.4591 63.5558C14.9274 63.3221 12.4931 62.9676 10.1353 62.4307C7.68792 61.8852 5.36422 61.165 3.28389 59.8993C2.39912 59.3673 1.57266 58.6883 0.930532 57.8149C0.321616 56.9754 -0.00584607 55.9689 7.90134e-05 54.9531C0.0154614 53.9606 0.33547 53.0188 0.882059 52.247C1.47388 51.4374 2.23027 50.8562 2.97893 50.4441C4.95791 49.3567 7.11565 48.9762 8.75513 48.7803C13.7593 48.6936 16.698 48.7641 16.712 49.0139Z" fill="black"/>
<path d="M20.0652 1.85788C19.2257 1.85066 18.5145 1.86655 18.0689 1.9085C16.2865 2.07649 9.15775 6.40286 5.89007 12.7024C2.62245 19.002 6.29734 26.0901 7.22758 30.99C8.15776 35.8899 11.5482 40.5519 13.2586 43.4621C14.969 46.3724 20.6106 55.6075 20.7607 55.7856L27.8721 45.1657C27.8721 45.1657 34.8321 31.8111 35.8081 29.7952C36.7842 27.7793 37.6323 16.5652 37.505 15.0953C37.3777 13.6254 35.4682 8.88001 33.7707 6.48617C32.0732 4.09234 28.9336 2.91666 27.4059 2.45469C26.2601 2.10821 22.5835 1.8795 20.0652 1.85785V1.85788ZM21.5006 7.99265C24.0473 7.99282 26.4896 8.99415 28.2903 10.7764C30.091 12.5586 31.1025 14.9757 31.1024 17.496C31.1022 20.0161 30.0905 22.4329 28.2899 24.2149C26.4893 25.9968 24.0471 26.998 21.5006 26.9982C18.9539 26.9983 16.5115 25.9973 14.7106 24.2153C12.9097 22.4333 11.8979 20.0163 11.8977 17.496C11.8977 16.248 12.146 15.0122 12.6286 13.8591C13.1111 12.7061 13.8185 11.6584 14.7102 10.776C15.6019 9.89348 16.6606 9.19349 17.8257 8.71593C18.9908 8.23836 20.2395 7.99258 21.5006 7.99265Z" fill="#BB7E40"/>
<path d="M21.0674 55.6277C21.0612 55.6311 21.0555 55.634 21.0498 55.6364C21.0395 55.6409 21.0304 55.6432 21.023 55.6438C21.0076 55.6449 20.9985 55.6381 20.9951 55.6233C20.9951 55.6162 20.9951 55.6071 20.9951 55.5961C20.9951 55.5744 21.0053 55.5452 21.0184 55.5088C21.0446 55.4366 21.0922 55.3353 21.1599 55.206C21.292 54.9531 21.5049 54.5861 21.7852 54.1179C22.6008 52.7552 23.3052 51.6192 24.1208 50.2566C25.8349 47.3889 28.4307 42.9397 30.8461 37.7549C32.7858 33.5827 34.9834 28.285 35.9479 22.6646C36.3358 20.3984 36.5426 17.9965 36.2917 15.624C36.0727 13.5737 35.5103 11.4932 34.4279 9.69916C32.6441 6.7413 29.8961 4.08631 26.4851 2.96892C25.7985 2.7362 25.0875 2.56381 24.3608 2.45071C21.9913 2.0819 19.527 2.35336 17.2995 3.12787C14.1936 4.21105 11.5094 6.25414 9.65479 8.76393C7.51737 11.6449 6.52502 15.1817 6.58518 18.5122C6.65765 22.8761 7.75377 27.1499 8.95189 30.8452C10.4194 35.3606 12.2712 39.4906 13.8795 42.7952C18.0861 50.2547 20.6145 54.9753 20.6787 55.5831C20.6844 55.6167 20.6782 55.6374 20.6667 55.6455C20.7352 55.6022 20.7381 55.6003 20.6667 55.6466L20.6666 55.6467C20.6666 55.6467 20.6666 55.6466 20.6666 55.6466C20.4323 55.7776 17.4568 51.2463 12.6218 43.4781C10.8468 40.2025 8.82329 36.0681 7.18181 31.4361C5.85152 27.6915 4.62777 23.2618 4.4634 18.5678C4.4634 18.5678 4.4634 18.5678 4.4634 18.5678C4.33847 14.8071 5.40629 10.8072 7.83318 7.4574C9.92741 4.57686 12.9551 2.23901 16.5289 0.977339C17.4493 0.65158 18.4046 0.402689 19.3804 0.237576C22.0198 -0.209014 24.7291 -0.0296849 27.2285 0.806895C31.2697 2.19803 34.404 5.20217 36.366 8.57553C37.6206 10.7315 38.253 13.1141 38.4568 15.4168C38.6927 18.0556 38.4392 20.6391 37.98 23.0254C36.8476 28.9199 34.4754 34.2786 32.3469 38.468C29.7004 43.6866 26.909 47.9769 24.9412 50.7763C23.8173 52.3754 22.8879 53.5901 22.212 54.411C21.8611 54.8373 21.5818 55.1531 21.3779 55.3602C21.2746 55.465 21.1916 55.541 21.1295 55.5879C21.1067 55.6051 21.0868 55.6183 21.0695 55.6277L21.0674 55.6277Z" fill="black"/>
<path d="M21.3606 26.9212C21.2915 26.691 23.1233 25.9202 26.254 24.8123C27.2985 24.1875 28.4856 23.2652 29.2671 21.9999C30.0975 20.7313 30.5147 19.0588 30.4323 17.2072C30.3401 15.603 30.0422 13.8654 29.1926 12.4592C28.6308 11.5023 27.7882 10.657 26.7653 10.0897C25.4885 9.35692 23.9282 9.04378 22.261 8.9977C21.9367 8.98873 21.6118 8.98995 21.2887 8.99993C20.5395 9.0222 19.7594 9.23786 18.9881 9.51867C17.968 9.90056 17.0279 10.4337 16.2113 11.0789C13.9505 12.8334 12.8409 15.6107 12.6732 18.0514C12.5697 19.5718 12.9719 20.9997 13.6624 22.0929C14.3958 23.2778 15.4785 24.1886 16.411 24.8365C17.5247 25.6056 18.6435 26.1397 19.3587 26.4744C19.7795 26.6711 20.1168 26.8232 20.3438 26.9401C20.4635 27.0017 20.5549 27.0548 20.6149 27.0998C20.6451 27.1228 20.6679 27.1439 20.6824 27.1632C20.6881 27.1888 20.6909 27.2026 20.6944 27.21C20.7001 27.2172 20.7001 27.2183 20.7006 27.2184C20.7006 27.2184 20.7006 27.2184 20.7006 27.2184C20.7006 27.2184 20.7006 27.2184 20.7006 27.2184C20.7002 27.2184 20.6949 27.2184 20.6914 27.2235C20.6852 27.2291 20.6761 27.2398 20.6618 27.2616C20.6402 27.2734 20.61 27.283 20.571 27.2905C20.4951 27.3051 20.3873 27.3111 20.2481 27.3067C19.9832 27.2984 19.605 27.2525 19.129 27.1515C18.3079 26.9777 17.0783 26.6156 15.7488 25.9094C14.6381 25.3228 13.3222 24.4054 12.2889 23.0155C11.3196 21.6892 10.6849 19.9284 10.7231 17.9734C10.7738 15.0424 11.9886 11.6858 14.7919 9.35528C15.7806 8.54421 16.9192 7.87547 18.1648 7.39645C19.0757 7.038 20.0953 6.76633 21.1924 6.71244C21.5639 6.69349 21.9407 6.68753 22.3206 6.69644C24.2732 6.74216 26.2001 7.17744 27.8989 8.13171C29.282 8.92863 30.3839 10.0786 31.113 11.3879C32.1469 13.2887 32.455 15.3483 32.4539 17.1543C32.481 19.3915 31.8122 21.4224 30.6761 22.9652C29.5078 24.4866 28.0118 25.4404 26.7438 26.0087C23.3944 26.8056 21.4298 27.1516 21.3606 26.9212V26.9212Z" fill="black"/>
</svg>
