<svg width="83" height="130" viewBox="0 0 83 130" fill="none" xmlns="http://www.w3.org/2000/svg">
<path d="M63.1219 83.3243C63.1244 83.319 63.1264 83.3134 63.1274 83.3075C63.1274 83.3014 63.1274 83.2948 63.1259 83.2877C63.1234 83.2735 63.1172 83.2575 63.1073 83.2395C63.0879 83.204 63.0544 83.1608 63.0074 83.1101C62.9163 83.0117 62.7733 82.8838 62.5838 82.7269C62.2205 82.4261 61.721 82.046 61.0613 81.528C60.4993 81.0866 59.7888 80.5198 59.06 79.8779C58.4388 79.3302 57.7392 78.6755 57.0936 77.9405C56.5743 77.3454 56.0446 76.6681 55.6816 75.9294C55.4091 75.3526 55.1925 74.7265 55.2465 74.1742C55.2618 73.9224 55.3229 73.6666 55.4264 73.4312C55.5373 73.169 55.7164 72.9137 55.9363 72.666C56.5413 71.9675 57.4396 71.4875 58.4954 71.0067C59.5529 70.5519 60.7687 70.3515 61.9349 70.5586C63.1103 70.7458 64.2731 71.3398 65.3699 72.1624C66.6516 73.1318 67.7702 74.412 68.8158 75.8764C70.0426 77.604 71.0826 79.5314 72.0237 81.6123V81.614C74.5604 87.2256 75.9899 93.1743 76.9426 98.3637C78.1292 104.849 78.5803 110.661 78.8444 114.572C79.1141 118.564 79.239 120.899 79.4939 120.907C80.0037 120.923 81.2689 111.482 79.2331 97.9578C78.4308 92.6058 77.0428 86.4335 74.3689 80.4884L74.3674 80.4867C73.3769 78.2841 72.2345 76.2063 70.8639 74.3119C69.7054 72.7028 68.3749 71.2528 66.8102 70.102C65.4594 69.1016 63.9152 68.3985 62.2756 68.1585C60.6009 67.9344 58.9734 68.2601 57.5938 68.9293C56.4117 69.4807 55.2824 70.2149 54.3949 71.2746C54.06 71.6806 53.7825 72.148 53.588 72.6647C53.412 73.1424 53.3264 73.6407 53.3267 74.133C53.3482 75.1955 53.6996 76.1125 54.1374 76.8304C54.6812 77.7445 55.3499 78.4847 55.979 79.0819C56.7618 79.8297 57.5657 80.4461 58.2778 80.9408C59.1191 81.5259 59.9073 81.9934 60.5574 82.3448C61.2975 82.7449 61.9049 83.0201 62.3352 83.1815C62.5676 83.2686 62.7509 83.3236 62.8828 83.3479C62.9506 83.3605 63.0045 83.3648 63.0442 83.3611C63.0643 83.3593 63.0807 83.3554 63.0934 83.3493C63.0998 83.3464 63.1053 83.3428 63.1098 83.3387C63.1139 83.3344 63.1172 83.3296 63.1199 83.3243H63.1219Z" fill="#713E24"/>
<path d="M79.114 119.073C79.1182 119.071 79.122 119.068 79.1255 119.064C79.1286 119.061 79.1313 119.056 79.1338 119.05C79.1384 119.039 79.1413 119.024 79.1425 119.005C79.1447 118.969 79.1404 118.918 79.1294 118.854C79.1079 118.73 79.0611 118.554 78.9889 118.33C78.8534 117.908 78.6275 117.312 78.3095 116.561C77.7967 115.351 76.947 113.508 75.8261 111.515C75.3858 110.733 74.8713 109.87 74.2814 109.009C73.838 108.359 73.3139 107.652 72.6722 107.002C72.4326 106.758 72.1567 106.511 71.8341 106.287C71.5885 106.11 71.2779 105.946 70.8971 105.84C70.5741 105.747 70.1961 105.749 69.7945 105.878C69.3858 106.042 69.0717 106.294 68.8663 106.586C68.3824 107.209 67.8836 107.86 67.3562 108.41C67.0183 108.744 66.7174 109.043 66.4256 109.152C66.2462 109.243 65.9983 109.257 65.7441 109.221C65.351 109.17 64.9192 108.981 64.4025 108.767C63.8611 108.531 63.2529 108.246 62.604 108.004C62.1117 107.802 61.4835 107.626 60.7302 107.638C60.397 107.65 60.0482 107.73 59.7017 107.889C59.3399 108.066 59.0364 108.304 58.7992 108.58C58.1718 109.344 57.8569 110.182 57.6935 110.919C57.5014 111.601 57.2799 112.24 56.9317 112.706C56.6622 113.088 56.2784 113.404 55.8508 113.588C55.313 113.84 54.6358 113.91 53.8871 113.936C52.8487 113.956 51.7713 113.81 50.631 113.614C49.0149 113.331 47.3699 113.005 45.7374 112.6C43.8587 112.133 41.9679 111.567 40.1528 110.815C39.1161 110.38 38.0972 109.897 37.1551 109.324C36.5424 108.952 35.9672 108.545 35.4402 108.091C34.8342 107.572 34.2971 107.01 33.8824 106.392C33.4809 105.796 33.1777 105.146 33.0167 104.48C32.1867 101.105 32.0278 97.6633 32.4006 94.4356C32.7963 91.122 33.6983 88.118 35.2447 85.6686C36.8992 83.0136 39.2809 81.0651 41.638 79.7973C42.9308 79.1081 44.2046 78.6307 45.4586 78.3908C46.7309 78.1526 47.9064 78.1475 48.9491 78.4312C51.6624 79.1629 54.0207 79.7094 55.6296 80.0412C56.6007 80.2415 57.3648 80.3772 57.8995 80.4474C58.1828 80.4846 58.4019 80.5035 58.5541 80.5037C58.632 80.5038 58.6923 80.499 58.7346 80.4892C58.756 80.4843 58.7728 80.4782 58.7849 80.4707C58.7935 80.4569 58.7991 80.4501 58.8025 80.4468C58.806 80.4436 58.8072 80.4437 58.8073 80.4437C58.8072 80.4437 58.8058 80.4437 58.8045 80.4386C58.803 80.4341 58.8013 80.4254 58.8001 80.409C58.793 80.3964 58.7812 80.3827 58.7648 80.3677C58.7324 80.3381 58.6819 80.3038 58.6138 80.2649C58.481 80.189 58.2809 80.0954 58.0168 79.9846C57.5177 79.7753 56.791 79.5052 55.8557 79.1752C54.2607 78.6125 52.0599 77.8828 49.3738 76.9566C48.0978 76.5291 46.6723 76.4254 45.1897 76.6368C43.7317 76.8394 42.2538 77.3041 40.7883 78.0129C38.1012 79.3012 35.3843 81.3768 33.3792 84.3853C31.5476 87.1637 30.4353 90.5063 29.9725 94.1148C29.5086 97.6332 29.6397 101.394 30.5304 105.121C30.7747 106.127 31.2012 107.071 31.7678 107.91C32.3474 108.766 33.041 109.509 33.7945 110.147C34.4425 110.695 35.1272 111.182 35.8377 111.618C36.9306 112.289 38.0688 112.832 39.1957 113.288C41.1737 114.097 43.1871 114.69 45.1528 115.157C46.866 115.566 48.5711 115.885 50.2303 116.152C51.4386 116.351 52.674 116.49 53.9467 116.453C54.871 116.436 55.855 116.277 56.8139 115.851C57.6424 115.466 58.342 114.861 58.8505 114.114C59.4109 113.262 59.7302 112.357 59.9211 111.514C60.0991 110.893 60.221 110.382 60.4772 110.126C60.5432 110.051 60.6015 109.993 60.6481 109.973C60.6878 109.945 60.7617 109.929 60.8506 109.918C61.1006 109.873 61.4626 109.993 61.8999 110.12C62.441 110.3 63.0276 110.554 63.6194 110.786C64.1634 111.009 64.779 111.225 65.4865 111.318C66.0808 111.393 66.7002 111.297 67.276 111.022C67.9335 110.671 68.4113 110.209 68.7687 109.78C69.3645 109.097 69.872 108.377 70.3245 107.729C70.3831 107.662 70.41 107.611 70.4047 107.625C70.3861 107.612 70.4291 107.618 70.496 107.619C70.6003 107.629 70.7384 107.702 70.9039 107.795C71.1122 107.919 71.3188 108.088 71.527 108.273C72.0854 108.773 72.5897 109.381 73.051 109.967C73.6535 110.736 74.2058 111.532 74.6903 112.257C75.8644 114.014 77.0014 115.922 77.6208 116.937C78.0409 117.626 78.3713 118.158 78.6182 118.522C78.749 118.714 78.8557 118.859 78.9377 118.951C78.9799 118.999 79.0156 119.033 79.0449 119.054C79.0596 119.064 79.0728 119.071 79.0843 119.075C79.0901 119.076 79.0955 119.077 79.1004 119.077C79.1052 119.077 79.1098 119.075 79.114 119.073L79.114 119.073Z" fill="#713E24"/>
<path d="M32.5352 108.074C32.582 107.769 30.6427 107.165 27.3084 106.393C23.5569 106.025 18.5486 106.524 12.8698 108.977C11.1239 109.732 9.33849 110.543 7.49809 111.411C6.16092 112.042 4.85293 112.676 3.58975 113.3C0.220421 114.965 -2.88393 116.59 -5.52736 118.036C-8.39908 119.606 -10.7553 120.981 -12.3914 122.022C-13.2418 122.563 -13.8974 123.014 -14.3311 123.357C-14.5511 123.531 -14.7136 123.678 -14.8152 123.793C-14.8664 123.852 -14.902 123.902 -14.9218 123.945C-14.9317 123.966 -14.9376 123.986 -14.9394 124.003C-14.934 124.025 -14.9322 124.037 -14.9318 124.043C-14.9315 124.049 -14.9324 124.049 -14.9326 124.049C-14.9326 124.049 -14.9326 124.049 -14.9326 124.049C-14.9326 124.049 -14.9326 124.049 -14.9326 124.049C-14.9325 124.049 -14.9314 124.049 -14.9269 124.053C-14.9223 124.057 -14.9144 124.065 -14.9007 124.083C-14.8861 124.092 -14.8675 124.098 -14.8449 124.103C-14.8 124.112 -14.7394 124.113 -14.6636 124.105C-14.513 124.09 -14.3024 124.043 -14.036 123.966C-13.5109 123.814 -12.7673 123.544 -11.8374 123.173C-10.0461 122.458 -7.56252 121.367 -4.59731 120.011C-1.83714 118.748 1.25857 117.295 4.67101 115.683C6.34787 114.891 6.89699 114.63 8.57385 113.838C10.4203 112.967 12.1424 112.159 13.871 111.361C19.1292 108.923 23.5654 108.141 27.1581 108.02C30.4676 108.335 32.4883 108.378 32.5351 108.074L32.5352 108.074Z" fill="#713E24"/>
<path d="M33.9737 76.0873C33.9698 76.0962 33.9668 76.1051 33.9647 76.1146C33.9627 76.1236 33.9614 76.1331 33.9609 76.1429C33.9594 76.162 33.9609 76.1829 33.9661 76.205C33.974 76.2473 33.9915 76.297 34.0165 76.3514C34.0618 76.4499 34.1426 76.5918 34.2262 76.7451C34.3942 77.0529 34.582 77.4529 34.6856 78.0058C34.8085 78.6233 34.7711 79.3069 34.5865 80.2148C34.332 81.4138 33.8241 82.5741 33.0598 84.0345C32.429 85.2107 31.7224 86.5141 30.9699 87.7562C30.0497 89.275 29.1429 90.568 28.1594 91.7147C27.4353 92.5526 26.7969 93.1986 26.093 93.6842C25.4495 94.1116 24.9212 94.3728 24.3963 94.4287C22.6027 94.5961 21.5267 94.8449 21.4994 95.1524C21.4994 95.1634 21.4994 95.1618 21.4994 95.1618C21.4994 95.1618 21.4994 95.1603 21.4994 95.1713C21.5149 95.4801 22.579 95.7981 24.3458 96.0801C25.2165 96.1809 26.1773 96.0035 27.0944 95.5283C28.0939 95.0287 29.0187 94.3137 29.8939 93.4237C31.0843 92.2215 32.1691 90.806 33.1637 89.1765C33.9898 87.8232 34.6756 86.4504 35.2468 85.1777C35.9994 83.5502 36.4475 81.9962 36.541 80.4801C36.6229 79.3061 36.4007 78.2762 36.0011 77.4841C35.6305 76.7599 35.1226 76.3377 34.74 76.1416C34.5352 76.0375 34.3584 75.9924 34.2288 75.9873C34.1605 75.9847 34.1047 75.9925 34.0621 76.0094C34.0405 76.0181 34.0225 76.0289 34.0079 76.0418C34.0006 76.0483 33.9941 76.0553 33.9886 76.0627C33.9827 76.0704 33.9779 76.0787 33.974 76.0874L33.9737 76.0873Z" fill="#713E24"/>
<path d="M72.6415 80.7056C72.9208 80.7114 73.226 78.2521 73.517 74.0391C73.4881 72.1074 73.2963 69.7615 72.7612 67.196C72.2581 64.8039 71.4338 62.1679 70.1152 59.5486C67.9843 55.674 65.0294 51.8843 61.226 48.5209C61.0382 48.3547 60.8485 48.1897 60.657 48.026C57.1813 45.0554 53.4761 42.836 49.7443 41.3522C45.3991 39.6138 41.347 39.0556 37.7902 39.4149C35.6448 39.6348 33.8324 40.199 32.3816 40.8872C29.152 42.4221 27.9241 44.2379 28.0929 44.433C28.2617 44.6282 29.7995 43.2453 32.8874 42.2113C34.28 41.7435 35.952 41.3965 37.9131 41.3371C41.1828 41.2325 44.8132 41.9453 48.845 43.6688C52.2943 45.1525 55.7271 47.2838 59.0073 50.0824C59.188 50.2367 59.3672 50.392 59.5449 50.5483C63.1255 53.7027 65.951 57.1861 68.0603 60.745C69.338 63.0815 70.2074 65.4871 70.8075 67.6949C71.4505 70.0413 71.8049 72.241 72.0195 74.0754C72.1507 78.2331 72.3624 80.7 72.6415 80.7056Z" fill="#713E24"/>
<path d="M55.6344 71.2773C55.7912 71.2641 55.832 69.8676 55.7691 67.3065C55.5578 65.1122 54.9532 61.8012 53.2855 58.2484C52.5118 56.6055 51.4884 54.884 50.1556 53.2311C48.8339 51.5932 47.2091 50.0298 45.279 48.6748C43.2404 47.2455 40.9093 46.0726 38.3367 45.2087H38.3366C35.4401 44.2365 32.3333 43.6633 29.0547 43.438C26.1533 43.2311 23.0397 43.2949 19.9368 43.9866C17.7322 44.4747 15.4919 45.3349 13.4933 46.7464C11.9524 47.8409 10.6031 49.2827 9.61684 51.0049C9.59348 51.0457 9.57033 51.0866 9.5474 51.1277C8.64747 52.7539 8.10781 54.5411 7.90218 56.3369C7.6974 58.1225 7.80308 59.9078 8.15837 61.604C8.5042 63.2683 9.08926 64.8611 9.89643 66.3116C10.6405 67.6604 11.6036 68.8953 12.7997 69.8822C13.3523 70.3363 13.9633 70.7286 14.6262 71.0327H14.6262C15.2664 71.3263 15.9533 71.5227 16.6635 71.6016C17.8666 71.7322 19.0785 71.6354 20.2284 71.3112C21.307 71.0006 22.2911 70.512 23.1667 69.9331C24.0627 69.3416 24.8628 68.6704 25.5907 68.0007C26.3235 67.3285 27.0533 66.5989 27.7097 65.9697C28.385 65.325 29.0222 64.7368 29.6944 64.2397C30.3438 63.7635 30.9905 63.3768 31.6561 63.1567C32.3508 62.9189 33.0921 62.8544 33.7922 62.9465C34.7389 63.0613 35.6739 63.4711 36.5272 63.9514C38.563 65.1221 40.1267 66.5821 41.2205 68.148C42.3036 69.6902 42.9313 71.312 43.288 72.682C43.6812 74.1941 43.7864 75.509 43.8305 76.3838C43.8552 76.8745 43.8615 77.2543 43.8742 77.5182C43.8808 77.655 43.8893 77.7617 43.9018 77.8342C43.9083 77.8714 43.9159 77.9003 43.925 77.9205C43.9297 77.9306 43.9346 77.9387 43.9399 77.9445C43.9489 77.9489 43.9533 77.9515 43.9556 77.9532C43.9577 77.9549 43.9577 77.9556 43.9577 77.9556C43.9577 77.9555 43.9577 77.9555 43.9606 77.954C43.9633 77.954 43.9684 77.9524 43.9783 77.9523C43.9855 77.9489 43.9931 77.9433 44.001 77.9352C44.0168 77.9193 44.034 77.8945 44.0524 77.8607C44.0886 77.7941 44.1287 77.6938 44.1706 77.5586C44.2509 77.2994 44.3369 76.9156 44.4024 76.4083C44.5196 75.5017 44.5818 74.1175 44.3091 72.4536C44.0622 70.9456 43.5122 69.122 42.4097 67.3202C41.2887 65.4976 39.6303 63.7562 37.4272 62.3654C36.4791 61.757 35.3524 61.2215 34.0761 60.9921C33.1032 60.8254 32.0702 60.8746 31.066 61.1753C30.1348 61.4614 29.2802 61.9186 28.5002 62.4684C27.6953 63.0314 26.9674 63.6594 26.2549 64.3082C25.5368 64.9596 24.8383 65.6259 24.1202 66.2521C23.423 66.8582 22.7029 67.4395 21.9454 67.9111C21.2104 68.3678 20.4272 68.7433 19.6185 68.952C18.7652 69.1789 17.8466 69.2317 16.9306 69.1193C16.4952 69.0669 16.0539 68.9293 15.6275 68.7292L15.6274 68.7291C15.1822 68.5203 14.7536 68.2323 14.3453 67.8919C13.4488 67.1485 12.7045 66.1498 12.0846 65.0261C11.4233 63.8147 10.9439 62.4685 10.6577 61.0569C10.3693 59.6208 10.2852 58.1238 10.4617 56.6559C10.6385 55.1885 11.0744 53.7378 11.7911 52.4547C11.8091 52.4223 11.8272 52.3899 11.8455 52.3577C12.6174 50.997 13.7108 49.8321 14.9607 48.9325C16.5902 47.7517 18.5266 47.0111 20.4872 46.545C23.2613 45.8902 26.1494 45.8068 28.9079 45.9513C32.0248 46.1231 34.946 46.5978 37.6567 47.442C40.0604 48.1901 42.2356 49.205 44.1413 50.4563C45.9454 51.6391 47.4888 53.0172 48.7657 54.4733C50.0551 55.9425 51.0819 57.4978 51.8889 58.9961C53.6251 62.2082 54.4438 65.3293 54.8801 67.4151C55.2177 69.9196 55.4774 71.2902 55.6342 71.277L55.6344 71.2773Z" fill="#713E24"/>
<path d="M-29.5282 109.907C-29.4299 110.255 -26.6112 109.749 -22.1105 108.645C-17.9887 107.551 -12.3446 105.78 -6.346 103.245C-5.63964 102.946 -4.92654 102.636 -4.20967 102.314C-2.06668 101.35 -0.0480356 100.348 1.86486 99.2859C4.52988 97.808 6.80851 96.3153 8.81022 94.658C9.8125 93.8282 10.6884 92.9943 11.4537 92.1292C12.2413 91.2413 12.8637 90.3607 13.337 89.4735C13.8679 88.4828 14.1497 87.5494 14.2557 86.727C14.479 84.9699 13.9412 84.068 13.7512 84.1103C13.5612 84.1526 13.6725 85.0913 13.1949 86.475C12.9685 87.1386 12.6125 87.8414 12.0498 88.6332C11.5434 89.3427 10.9214 90.0326 10.1351 90.7717C9.37025 91.4886 8.51452 92.178 7.52456 92.893H7.52455C5.53331 94.3311 3.34213 95.6191 0.706338 96.9973C-1.17603 97.9798 -3.14171 98.9223 -5.24301 99.8669C-5.94425 100.182 -6.64223 100.489 -7.33327 100.789C-13.1249 103.299 -18.7344 105.382 -22.6317 106.863H-22.6317C-26.9869 108.423 -29.6264 109.56 -29.5282 109.907Z" fill="#713E24"/>
<path d="M13.6242 85.8127C13.6405 85.6929 11.8076 85.3097 8.36494 84.6998C5.5183 84.0735 1.12799 82.9883 -3.71406 81.0505C-5.86748 80.1891 -8.20984 79.1184 -10.5692 77.7768C-10.5692 77.7768 -10.5692 77.7768 -10.5692 77.7768C-12.709 76.5597 -14.931 75.0835 -17.0324 73.2884C-18.9596 71.6419 -20.8313 69.6887 -22.4195 67.4137C-23.9465 65.2283 -25.2248 62.7206 -26.0848 59.9683C-27.5783 55.1836 -28.4556 49.7698 -28.0149 44.2306C-27.674 39.9331 -26.5396 35.496 -24.3804 31.4901C-22.5762 28.1434 -20.0459 25.0567 -16.8595 22.8121C-14.019 20.8097 -10.6303 19.4677 -7.10669 19.2353C-4.20553 19.0465 -1.23261 19.1802 1.52903 20.0382C3.47039 20.6359 5.32508 21.6069 6.89281 22.9454C8.14915 24.0078 9.2402 25.3249 10.2298 26.7657C10.996 27.8851 11.7077 29.1547 12.5968 30.4132C13.3356 31.4784 14.3965 32.3625 15.7008 32.8282C16.8823 33.2279 18.1691 33.1988 19.3405 32.7343H19.3406C22.2275 31.4001 23.6255 28.3089 23.7912 25.4419C23.9769 23.2221 23.4511 21.0678 22.5763 19.1794V19.1794C21.5173 16.852 19.9828 14.8018 18.1926 13.0664C17.9897 12.8691 17.7834 12.6756 17.574 12.4858C15.588 10.6862 13.3373 9.24628 10.966 8.16714C7.8313 6.74061 4.49161 5.9333 1.16311 5.66004C-2.6932 5.34184 -6.53458 5.5172 -10.2583 6.08689C-14.2154 6.68955 -18.0587 7.74641 -21.6658 9.31168C-25.2432 10.8597 -28.5717 12.9316 -31.3632 15.6164C-34.173 18.3212 -36.3205 21.6608 -37.5058 25.3174C-38.8185 29.3937 -39.7162 33.5067 -40.2863 37.5413C-40.9475 42.2118 -41.1645 46.7875 -40.9409 51.212C-40.6978 56.0506 -39.9189 60.6389 -38.5698 64.8907C-37.0916 69.5516 -34.9299 73.6709 -32.247 77.0819C-30.7389 78.995 -29.0598 80.6547 -27.3644 82.0905C-25.4838 83.6837 -23.5395 85.0453 -21.6587 86.2133C-17.36 88.8824 -13.0686 90.7645 -9.59649 92.0839C-5.4975 93.642 -2.00993 94.6118 0.32991 95.1745C3.02669 95.7471 4.46122 95.9995 4.48599 95.896C4.48599 95.896 4.48599 95.896 4.48599 95.896C4.48607 95.896 4.48611 95.896 4.48605 95.896C4.48598 95.896 4.48603 95.8961 4.48611 95.896C4.50579 95.7912 3.11477 95.3363 0.479219 94.5742C-1.78456 93.8537 -5.22837 92.7096 -9.19944 91.0308C-12.5783 89.6021 -16.7584 87.6193 -20.8808 84.916C-22.6857 83.7325 -24.5415 82.3706 -26.3164 80.8014C-27.9157 79.3869 -29.4862 77.7756 -30.8709 75.9493C-33.3562 72.6796 -35.3394 68.7341 -36.6926 64.2711C-37.9286 60.1931 -38.6161 55.7826 -38.8033 51.1096C-38.9732 46.8357 -38.7178 42.413 -38.0381 37.8909C-37.4497 33.9835 -36.5507 30.0136 -35.2579 26.0981C-34.1989 22.8705 -32.2427 19.8924 -29.7001 17.4623C-27.1575 15.0295 -24.0636 13.1401 -20.7008 11.6911C-17.3043 10.2319 -13.6611 9.24915 -9.88961 8.68356C-6.33887 8.15367 -2.68935 7.99495 0.955353 8.30426C4.0227 8.56605 7.08325 9.30589 9.92065 10.6054C12.0687 11.5892 14.0987 12.885 15.8671 14.4901C16.0536 14.6593 16.237 14.8318 16.4171 15.0076C18.0049 16.5621 19.3511 18.3401 20.2355 20.3075C20.9425 21.9146 21.3945 23.6059 21.2259 25.1879C20.916 27.423 20.0778 29.7747 18.4104 30.2701H18.4104C17.8172 30.5146 17.1074 30.5319 16.5014 30.3235C15.7985 30.1064 15.1538 29.5399 14.6516 28.8591C13.8637 27.7583 13.1553 26.5012 12.2988 25.2554C11.2173 23.6773 9.9671 22.1948 8.4887 20.9406C6.62577 19.3729 4.47289 18.2523 2.23146 17.5786C-0.927256 16.6371 -4.18593 16.4908 -7.27431 16.7282C-11.285 17.032 -15.0612 18.549 -18.2014 20.8079C-21.7107 23.3342 -24.4466 26.7181 -26.3629 30.3685C-28.6555 34.7351 -29.8241 39.4906 -30.1293 44.0673C-30.5211 49.9634 -29.5316 55.6283 -27.8949 60.5878C-26.924 63.535 -25.5132 66.1937 -23.8436 68.4945C-22.1073 70.8854 -20.0984 72.9039 -18.0462 74.581C-15.8101 76.4087 -13.4764 77.8829 -11.2426 79.0773C-11.2426 79.0773 -11.2426 79.0773 -11.2426 79.0773C-8.77977 80.3946 -6.35586 81.4198 -4.13478 82.2259C0.883379 84.0462 5.33776 84.9407 8.25757 85.3907C11.7434 85.7819 13.6079 85.933 13.6242 85.8132V85.8127Z" fill="#713E24"/>
<path d="M12.355 67.349C12.3193 67.0061 9.15712 67.0406 4.04327 67.3713C1.72373 67.2455 -1.01904 66.9085 -3.92386 66.0992C-6.79173 65.3087 -9.83296 64.0553 -12.7384 62.1702C-14.1167 61.277 -15.4369 60.2104 -16.6543 58.9794C-17.7752 57.8461 -18.7625 56.6203 -19.6078 55.3367C-21.4131 52.6042 -22.5929 49.6121 -23.3479 46.793C-24.2394 43.4573 -24.5603 40.2787 -24.6573 37.6631C-24.8489 32.4227 -24.2516 29.1899 -24.5784 29.1121C-24.9052 29.0343 -26.1316 32.186 -26.3993 37.6499C-26.5345 40.3841 -26.3992 43.7517 -25.5868 47.3765C-24.9003 50.4449 -23.6965 53.7351 -21.7315 56.8055C-20.8049 58.2491 -19.7132 59.6223 -18.4645 60.885C-17.1081 62.2566 -15.6296 63.434 -14.0806 64.409C-10.8873 66.4161 -7.56773 67.6717 -4.45943 68.377C-1.26501 69.0943 1.68369 69.2536 4.13033 69.1599C9.2882 68.3517 12.3908 67.6921 12.355 67.349Z" fill="#713E24"/>
<path d="M9.30813 56.4805C9.30617 56.4732 9.3034 56.4662 9.29983 56.4594C9.29576 56.4529 9.29066 56.4466 9.28454 56.4408C9.27232 56.4291 9.25597 56.4186 9.23561 56.4092C9.19524 56.3906 9.13878 56.3764 9.06704 56.3663C8.92581 56.3463 8.72249 56.3418 8.46408 56.3489C7.96886 56.3626 7.23376 56.4208 6.33532 56.4863C4.68758 56.6061 2.25587 56.7735 -0.488544 56.6334C-2.9276 56.5054 -5.81813 56.1376 -8.59101 55.0897C-9.87992 54.6045 -11.1635 53.9705 -12.352 53.1508C-12.6654 52.9351 -12.9731 52.7061 -13.2738 52.464C-14.141 51.7656 -14.9174 50.9846 -15.5903 50.1463C-19.5578 45.1913 -21.8561 40.8787 -23.3873 37.1654C-24.0887 35.4657 -24.4825 34.2735 -24.8208 33.2744C-24.9731 32.8244 -25.102 32.4539 -25.2019 32.2212C-25.2532 32.1018 -25.3005 32.0103 -25.3437 31.9501C-25.3654 31.92 -25.3864 31.8973 -25.4067 31.8826C-25.4169 31.8753 -25.427 31.8698 -25.4369 31.8664C-25.4656 31.8643 -25.4668 31.8621 -25.4668 31.8619C-25.4668 31.8619 -25.4668 31.8619 -25.4668 31.8619C-25.4668 31.8621 -25.4677 31.8643 -25.4959 31.8703C-25.5053 31.8753 -25.5144 31.8824 -25.5234 31.8917C-25.5414 31.9101 -25.5583 31.9369 -25.5743 31.9719C-25.6064 32.0421 -25.6336 32.1445 -25.6549 32.2788C-25.6979 32.5496 -25.7148 32.9388 -25.6915 33.4461C-25.6437 34.4844 -25.4363 35.9232 -24.9423 37.7281C-23.8476 41.7238 -21.6184 46.6261 -17.5746 51.8144C-16.7934 52.8175 -15.886 53.7456 -14.8653 54.5676C-14.5116 54.8525 -14.149 55.1209 -13.779 55.3725C-12.3768 56.3239 -10.8921 57.0308 -9.4174 57.5384C-6.24199 58.627 -3.10429 58.8647 -0.506956 58.7822C2.42789 58.693 4.88341 58.2054 6.5431 57.7393C7.44857 57.4852 8.14315 57.2299 8.61311 57.0096C8.8545 56.8965 9.03443 56.7935 9.15182 56.7041C9.21114 56.6589 9.25412 56.6174 9.28051 56.5801C9.29373 56.5613 9.30275 56.5436 9.30753 56.527C9.30993 56.5188 9.31125 56.5107 9.31152 56.5029C9.31122 56.4952 9.31002 56.4877 9.30814 56.4804L9.30813 56.4805Z" fill="#713E24"/>
<path d="M68.8975 114.294C68.9042 114.292 68.9107 114.289 68.917 114.285C68.923 114.281 68.9286 114.276 68.934 114.271C68.9447 114.26 68.9542 114.245 68.9625 114.226C68.979 114.19 68.9901 114.14 68.9954 114.076C69.0056 113.952 68.9927 113.778 68.9465 113.559C68.8601 113.149 68.6535 112.569 68.2441 111.92C67.4263 110.638 65.8102 109.148 63.2702 108.463C62.2463 108.177 61.1711 107.953 59.9987 107.76C59.2203 107.631 58.3721 107.518 57.6474 107.342C57.0662 107.195 56.5072 107.006 56.0671 106.709C55.5618 106.394 55.11 105.9 54.671 105.311C54.2643 104.746 53.9054 104.152 53.6695 103.534C53.5038 103.121 53.3884 102.643 53.2712 102.112C53.2365 101.939 53.1977 101.754 53.1505 101.559C53.0695 101.224 52.9645 100.861 52.8133 100.479C52.5073 99.7594 52.0729 99.1555 51.5779 98.6743C50.8609 97.916 49.9018 97.2359 48.6917 96.9284C48.3941 96.8577 48.0554 96.8295 47.6855 96.8609C47.5874 96.8696 47.4756 96.8879 47.3512 96.9174C47.3512 96.9174 47.3512 96.9174 47.3512 96.9174C47.2717 96.9473 47.1853 96.9805 47.0921 97.017C47.0921 97.017 47.0921 97.017 47.0921 97.017C47.0882 97.0185 47.0841 97.0197 47.0802 97.0213C47.0787 97.0213 47.0773 97.0228 47.0758 97.023C46.3384 97.4887 45.6207 97.9453 44.9253 98.391C44.3044 98.9297 43.7666 99.6022 43.389 100.394C42.9764 101.349 42.9229 102.368 43.1496 103.281C43.4044 104.301 44.0171 105.127 44.7971 105.648C45.5623 106.138 46.3885 106.325 47.134 106.31C47.8645 106.321 48.5883 106.108 49.1889 105.687C49.4683 105.494 49.7073 105.212 49.8733 104.865C50.0406 104.475 50.0573 104.082 49.9717 103.738C49.6742 102.61 49.0005 101.922 48.4905 101.597C48.2062 101.418 47.9543 101.332 47.7769 101.301C47.6799 101.285 47.602 101.284 47.5449 101.295C47.5145 101.3 47.4904 101.309 47.4723 101.321C47.4574 101.343 47.4484 101.355 47.4429 101.36C47.4376 101.366 47.4358 101.366 47.4355 101.366C47.4355 101.366 47.4355 101.366 47.4355 101.366C47.4355 101.366 47.4355 101.366 47.4355 101.366C47.4355 101.366 47.4372 101.367 47.4378 101.374C47.4378 101.382 47.4378 101.397 47.4348 101.425C47.4395 101.445 47.4485 101.468 47.4615 101.493C47.4877 101.54 47.5308 101.599 47.5863 101.666C47.6895 101.792 47.8392 101.959 48 102.179H48C48.2887 102.573 48.6095 103.184 48.6687 103.994C48.6613 104.071 48.6346 104.152 48.5925 104.177C48.5588 104.225 48.4705 104.272 48.3577 104.336C48.0712 104.495 47.6736 104.511 47.1987 104.477C46.7422 104.417 46.2661 104.254 45.9177 103.958C45.5874 103.696 45.3349 103.253 45.2599 102.783C45.1845 102.333 45.2489 101.825 45.4669 101.424C45.6268 101.061 45.9333 100.728 46.3128 100.401C46.8897 100.06 47.4771 99.7104 48.0743 99.3515C48.0758 99.3515 48.0767 99.3515 48.0779 99.3499C48.0812 99.3484 48.0845 99.348 48.0877 99.3471C48.0224 99.375 47.9642 99.4006 47.913 99.4238C47.913 99.4238 47.913 99.4238 47.913 99.4238C47.896 99.4277 47.8939 99.4301 47.9059 99.4287C47.9508 99.4221 48.0329 99.4399 48.1464 99.4633C48.6602 99.5503 49.1847 100.019 49.7912 100.581C50.0732 100.874 50.3092 101.192 50.4338 101.519C50.514 101.7 50.5734 101.926 50.6345 102.192C50.6731 102.359 50.7088 102.525 50.7473 102.692C50.8735 103.286 51.0371 103.908 51.287 104.541C51.6515 105.435 52.1355 106.222 52.6633 106.907C53.2379 107.676 53.949 108.369 54.809 108.892C55.6019 109.351 56.4172 109.604 57.1751 109.738C58.0772 109.903 58.97 109.969 59.7221 110.038C60.8647 110.145 61.8742 110.265 62.8481 110.434C65.0092 110.818 66.4467 111.737 67.3739 112.653C67.8426 113.112 68.1608 113.523 68.3961 113.823C68.5176 113.978 68.6192 114.104 68.6976 114.183C68.7386 114.225 68.7756 114.256 68.808 114.275C68.8246 114.284 68.8402 114.291 68.8549 114.294C68.8622 114.295 68.8695 114.296 68.8763 114.296C68.8836 114.296 68.8905 114.295 68.8974 114.293L68.8975 114.294Z" fill="#713E24"/>
<path d="M58.4294 89.3746C58.425 89.3821 58.4021 89.4274 58.4012 89.4392C58.3973 89.4559 58.3946 89.476 58.3949 89.4975C58.3949 89.5387 58.4027 89.5907 58.4186 89.6497C58.4491 89.7641 58.5093 89.9157 58.5966 90.0937C58.7627 90.4334 59.0371 90.8972 59.3977 91.4427C60.0361 92.4088 61.0053 93.7269 62.1965 95.1779C63.0939 96.2725 64.21 97.5698 65.4709 98.7996C65.888 99.209 66.3616 99.6478 66.9097 100.057C67.0925 100.196 67.3167 100.346 67.5898 100.489C67.7336 100.594 68.0324 100.696 68.4901 100.745C69.0545 100.732 69.5098 100.582 69.8283 100.349C70.2145 100.092 70.5191 99.7945 70.7468 99.4871C70.898 99.2904 71.0346 99.083 71.1556 98.8664C71.4717 98.3006 71.6744 97.6857 71.7626 97.0587C71.921 96.0769 71.7263 95.0388 71.1721 94.1403C70.3422 92.9923 69.2088 92.448 68.2052 92.287C66.5688 91.9631 65.1169 91.7883 63.8794 91.5548C63.4789 91.4799 63.1279 91.3968 62.8048 91.2839C62.4018 91.1465 61.984 90.9414 61.6187 90.7581C60.7118 90.295 60.0292 89.9331 59.561 89.706C59.3615 89.6091 59.1891 89.5366 59.0735 89.5043C59.0171 89.4885 58.9678 89.4812 58.9284 89.4823C58.9096 89.4839 58.8919 89.4863 58.8764 89.4912C58.8383 89.5145 58.8337 89.5137 58.8333 89.5135C58.8332 89.5134 58.8332 89.5135 58.8332 89.5135C58.8332 89.5135 58.8332 89.5135 58.8332 89.5135C58.8334 89.5135 58.8332 89.5188 58.8032 89.5524C58.7962 89.5681 58.7918 89.5864 58.7902 89.6079C58.7858 89.6515 58.7927 89.7051 58.8104 89.7689C58.8485 89.906 58.9359 90.0791 59.077 90.2877C59.4095 90.7797 59.9611 91.3632 60.8042 92.0653C61.1463 92.3516 61.5712 92.6748 62.0749 92.9587C62.4869 93.1866 62.926 93.3721 63.3899 93.5256C64.8582 94.0201 65.9876 94.2496 67.6796 94.703C68.2931 94.9163 68.9041 95.1787 69.0597 95.5741C69.2311 95.8134 69.2653 96.2342 69.2152 96.656C69.1649 96.9615 69.0623 97.2665 68.9127 97.537C68.8554 97.6407 68.7917 97.7384 68.7221 97.8287C68.6126 97.9597 68.5291 98.058 68.4614 98.0941C68.4082 98.102 68.4302 98.1233 68.5614 98.0975C68.7522 98.1386 68.802 98.1289 68.7074 98.1151C68.6198 98.0776 68.5069 98.0017 68.3649 97.9067C67.9538 97.6247 67.5416 97.2675 67.1256 96.9031C65.936 95.855 64.6848 94.6221 63.7154 93.6873C62.3487 92.369 61.2636 91.3353 60.3511 90.5503C59.8543 90.123 59.4489 89.8037 59.1262 89.5949C58.9589 89.4868 58.8202 89.4115 58.7054 89.37C58.6466 89.3488 58.5963 89.3361 58.5522 89.3336C58.5292 89.3321 58.509 89.3336 58.4903 89.3372C58.4674 89.3453 58.4409 89.3549 58.4294 89.3747L58.4294 89.3746Z" fill="#713E24"/>
</svg>
