<svg width="81" height="123" viewBox="0 0 81 123" fill="none" xmlns="http://www.w3.org/2000/svg">
<path d="M18.3122 80.2162C18.3095 80.2107 18.3074 80.2049 18.3063 80.1989C18.3063 80.1926 18.3063 80.1857 18.3079 80.1784C18.3106 80.1639 18.3172 80.1473 18.3277 80.1287C18.3482 80.0922 18.3838 80.0477 18.4338 79.9954C18.5307 79.894 18.6827 79.7622 18.884 79.6004C19.2701 79.2904 19.801 78.8986 20.5021 78.3646C21.0994 77.9097 21.8545 77.3255 22.6291 76.6638C23.2893 76.0992 24.0328 75.4243 24.719 74.6668C25.2709 74.0534 25.8338 73.3552 26.2196 72.5938C26.5093 71.9993 26.7394 71.3539 26.6821 70.7846C26.6658 70.525 26.6009 70.2614 26.4908 70.0187C26.373 69.7484 26.1827 69.4853 25.9489 69.23C25.306 68.51 24.3513 68.0152 23.2292 67.5196C22.1052 67.0508 20.8131 66.8443 19.5737 67.0577C18.3244 67.2507 17.0887 67.8629 15.9229 68.7108C14.5608 69.7101 13.372 71.0297 12.2606 72.5391C10.9568 74.3199 9.85154 76.3066 8.85137 78.4515V78.4533C6.15532 84.2376 4.63607 90.3693 3.6235 95.7184C2.36241 102.403 1.88306 108.394 1.60228 112.426C1.31574 116.54 1.18297 118.947 0.912052 118.955C0.370196 118.972 -0.974394 109.24 1.18927 95.2999C2.04185 89.7833 3.51703 83.421 6.35887 77.293L6.36047 77.2913C7.41311 75.0209 8.62725 72.8792 10.084 70.9265C11.3152 69.2679 12.7293 67.7733 14.3923 66.5871C15.8279 65.5558 17.469 64.8312 19.2116 64.5838C20.9914 64.3527 22.7211 64.6884 24.1874 65.3783C25.4437 65.9466 26.6439 66.7034 27.5872 67.7957C27.9431 68.2142 28.238 68.696 28.4447 69.2286C28.6318 69.721 28.7227 70.2347 28.7224 70.7421C28.6996 71.8373 28.3262 72.7825 27.8608 73.5225C27.2829 74.4647 26.5722 75.2277 25.9035 75.8432C25.0717 76.614 24.2172 77.2495 23.4604 77.7594C22.5663 78.3625 21.7286 78.8444 21.0376 79.2065C20.2511 79.6189 19.6056 79.9026 19.1482 80.069C18.9012 80.1588 18.7064 80.2154 18.5663 80.2405C18.4942 80.2535 18.4369 80.258 18.3947 80.2541C18.3733 80.2522 18.3559 80.2482 18.3424 80.242C18.3356 80.2389 18.3297 80.2352 18.325 80.2311C18.3207 80.2266 18.3172 80.2216 18.3143 80.2162H18.3122Z" fill="#713E24"/>
<path d="M1.31577 117.064C1.31129 117.062 1.30728 117.059 1.3036 117.056C1.30024 117.052 1.29737 117.047 1.29481 117.041C1.28985 117.029 1.28681 117.014 1.28553 116.995C1.28313 116.957 1.28775 116.905 1.29944 116.839C1.3223 116.711 1.372 116.53 1.44875 116.299C1.59281 115.864 1.8329 115.249 2.17081 114.476C2.71586 113.228 3.61884 111.328 4.81016 109.275C5.27808 108.467 5.82498 107.578 6.45184 106.691C6.92308 106.021 7.48008 105.292 8.16215 104.622C8.41677 104.371 8.71004 104.116 9.05288 103.885C9.31392 103.703 9.64394 103.534 10.0487 103.424C10.3919 103.329 10.7937 103.33 11.2205 103.463C11.6549 103.633 11.9887 103.892 12.207 104.193C12.7213 104.836 13.2514 105.506 13.812 106.073C14.171 106.418 14.4909 106.726 14.801 106.839C14.9916 106.932 15.2552 106.946 15.5253 106.909C15.943 106.856 16.402 106.662 16.9511 106.441C17.5265 106.198 18.1729 105.904 18.8625 105.655C19.3857 105.447 20.0535 105.266 20.854 105.277C21.2082 105.29 21.5788 105.372 21.9471 105.536C22.3316 105.719 22.6542 105.964 22.9063 106.248C23.5731 107.036 23.9077 107.9 24.0814 108.659C24.2856 109.363 24.521 110.022 24.891 110.502C25.1775 110.895 25.5853 111.221 26.0398 111.41C26.6114 111.67 27.3312 111.743 28.1268 111.769C29.2305 111.79 30.3755 111.639 31.5875 111.438C33.305 111.146 35.0533 110.81 36.7883 110.392C38.7849 109.911 40.7945 109.328 42.7236 108.552C43.8254 108.104 44.9082 107.606 45.9095 107.016C46.5607 106.632 47.172 106.212 47.7322 105.745C48.3762 105.21 48.947 104.63 49.3878 103.993C49.8145 103.379 50.1367 102.709 50.3078 102.022C51.1899 98.544 51.3588 94.9962 50.9626 91.6691C50.542 88.2536 49.5834 85.1571 47.9399 82.6324C46.1815 79.8957 43.6502 77.8872 41.1452 76.5805C39.7711 75.8701 38.4173 75.3779 37.0846 75.1306C35.7324 74.8851 34.4831 74.8799 33.3749 75.1722C30.4913 75.9265 27.9849 76.4898 26.2749 76.8319C25.2428 77.0383 24.4307 77.1782 23.8625 77.2505C23.5614 77.2889 23.3286 77.3083 23.1668 77.3086C23.084 77.3087 23.0199 77.3038 22.9749 77.2937C22.9522 77.2885 22.9343 77.2823 22.9215 77.2745C22.9123 77.2603 22.9064 77.2533 22.9028 77.2499C22.8991 77.2466 22.8978 77.2467 22.8976 77.2467C22.8978 77.2467 22.8993 77.2467 22.9007 77.2415C22.9023 77.2368 22.904 77.2278 22.9053 77.2109C22.9128 77.1979 22.9254 77.1838 22.9428 77.1684C22.9773 77.1379 23.0309 77.1025 23.1033 77.0624C23.2445 76.9842 23.4572 76.8877 23.7378 76.7735C24.2683 76.5578 25.0405 76.2794 26.0346 75.9392C27.7298 75.3592 30.0688 74.607 32.9236 73.6523C34.2797 73.2117 35.7947 73.1048 37.3704 73.3227C38.92 73.5315 40.4907 74.0106 42.0481 74.7412C44.9041 76.069 47.7916 78.2085 49.9226 81.3096C51.8691 84.1735 53.0513 87.6189 53.5432 91.3385C54.0362 94.9651 53.8969 98.8414 52.9503 102.683C52.6906 103.721 52.2373 104.693 51.6351 105.558C51.0191 106.44 50.2819 107.206 49.4812 107.864C48.7925 108.429 48.0647 108.931 47.3096 109.381C46.1481 110.072 44.9384 110.631 43.7408 111.102C41.6386 111.936 39.4987 112.546 37.4096 113.028C35.5888 113.45 33.7767 113.779 32.0133 114.054C30.7291 114.259 29.4161 114.403 28.0635 114.364C27.0812 114.346 26.0353 114.183 25.0162 113.744C24.1358 113.346 23.3922 112.723 22.8518 111.953C22.2561 111.074 21.9168 110.141 21.7139 109.273C21.5247 108.632 21.3952 108.106 21.1229 107.842C21.0528 107.765 20.9908 107.705 20.9413 107.685C20.8991 107.656 20.8205 107.64 20.7261 107.628C20.4604 107.581 20.0756 107.705 19.6109 107.837C19.0357 108.021 18.4124 108.283 17.7834 108.522C17.2053 108.753 16.551 108.975 15.7991 109.071C15.1674 109.148 14.5092 109.05 13.8972 108.766C13.1984 108.404 12.6906 107.928 12.3107 107.486C11.6775 106.782 11.1381 106.039 10.6573 105.371C10.595 105.303 10.5663 105.25 10.572 105.265C10.5917 105.251 10.5461 105.257 10.475 105.258C10.3641 105.268 10.2174 105.344 10.0414 105.44C9.82006 105.568 9.60055 105.742 9.3792 105.933C8.78575 106.448 8.24984 107.074 7.75949 107.678C7.11915 108.471 6.5322 109.292 6.01728 110.039C4.76944 111.85 3.56103 113.816 2.90281 114.863C2.4563 115.573 2.1051 116.122 1.84269 116.496C1.70376 116.695 1.59034 116.844 1.50317 116.939C1.45837 116.988 1.42036 117.024 1.38928 117.045C1.37359 117.056 1.35954 117.063 1.34733 117.066C1.34125 117.068 1.33548 117.069 1.33023 117.068C1.32511 117.068 1.32031 117.066 1.31583 117.064L1.31577 117.064Z" fill="#713E24"/>
<path d="M50.8196 105.727C50.7699 105.414 52.8309 104.791 56.3746 103.995C60.3617 103.616 65.6845 104.131 71.7199 106.658C73.5755 107.437 75.4729 108.272 77.4289 109.168C78.8501 109.818 80.2402 110.472 81.5827 111.115C85.1636 112.831 88.4629 114.506 91.2723 115.996C94.3244 117.615 96.8285 119.032 98.5674 120.105C99.4712 120.663 100.168 121.128 100.629 121.481C100.863 121.661 101.035 121.811 101.143 121.931C101.198 121.991 101.236 122.043 101.257 122.087C101.267 122.109 101.273 122.129 101.275 122.147C101.27 122.169 101.268 122.181 101.267 122.188C101.267 122.194 101.268 122.195 101.268 122.195C101.268 122.195 101.268 122.195 101.268 122.195C101.268 122.195 101.268 122.195 101.268 122.195C101.268 122.195 101.267 122.195 101.262 122.198C101.257 122.202 101.249 122.211 101.234 122.229C101.219 122.238 101.199 122.245 101.175 122.25C101.127 122.259 101.063 122.26 100.982 122.252C100.822 122.237 100.598 122.188 100.315 122.109C99.7572 121.952 98.9669 121.674 97.9786 121.292C96.0748 120.555 93.4353 119.429 90.2839 118.032C87.3504 116.731 84.0603 115.232 80.4335 113.571C78.6514 112.754 78.0678 112.486 76.2856 111.669C74.3232 110.771 72.493 109.939 70.6558 109.116C65.0674 106.603 60.3526 105.796 56.5344 105.672C53.017 105.996 50.8694 106.041 50.8197 105.727L50.8196 105.727Z" fill="#713E24"/>
<path d="M49.2907 72.7564C49.2949 72.7656 49.2981 72.7747 49.3003 72.7846C49.3024 72.7939 49.3038 72.8036 49.3043 72.8137C49.3059 72.8334 49.3043 72.855 49.2989 72.8777C49.2904 72.9213 49.2718 72.9726 49.2453 73.0286C49.1972 73.1301 49.1113 73.2764 49.0224 73.4344C48.8438 73.7517 48.6442 74.164 48.5341 74.7339C48.4035 75.3704 48.4433 76.075 48.6395 77.0109C48.91 78.2468 49.4497 79.4428 50.262 80.9481C50.9324 82.1605 51.6834 83.504 52.4831 84.7843C53.4611 86.3498 54.4249 87.6827 55.4702 88.8646C56.2397 89.7283 56.9182 90.3942 57.6664 90.8947C58.3502 91.3353 58.9117 91.6046 59.4695 91.6621C61.3757 91.8347 62.5194 92.0911 62.5484 92.4081C62.5484 92.4194 62.5484 92.4179 62.5484 92.4179C62.5484 92.4178 62.5484 92.4163 62.5484 92.4276C62.532 92.7459 61.401 93.0737 59.5232 93.3644C58.5979 93.4683 57.5767 93.2854 56.602 92.7956C55.5398 92.2806 54.5569 91.5436 53.6268 90.6262C52.3616 89.3871 51.2087 87.928 50.1516 86.2483C49.2737 84.8534 48.5448 83.4384 47.9377 82.1265C47.1379 80.449 46.6616 78.8472 46.5622 77.2844C46.4752 76.0742 46.7113 75.0127 47.1361 74.1962C47.5299 73.4497 48.0697 73.0145 48.4764 72.8124C48.694 72.705 48.8819 72.6586 49.0196 72.6534C49.0922 72.6506 49.1515 72.6586 49.1968 72.6761C49.2197 72.685 49.2388 72.6962 49.2544 72.7095C49.2622 72.7162 49.2691 72.7234 49.2749 72.731C49.2812 72.739 49.2863 72.7475 49.2905 72.7565L49.2907 72.7564Z" fill="#713E24"/>
<path d="M8.19474 77.5172C7.89793 77.5231 7.5735 74.9881 7.26428 70.6455C7.29495 68.6544 7.49886 66.2363 8.06746 63.5919C8.60216 61.1262 9.47825 58.409 10.8797 55.7091C13.1444 51.7153 16.2848 47.809 20.3271 44.3421C20.5266 44.1708 20.7282 44.0007 20.9318 43.832C24.6258 40.77 28.5637 38.4823 32.5298 36.9528C37.1479 35.161 41.4543 34.5855 45.2345 34.956C47.5146 35.1826 49.4408 35.7642 50.9828 36.4735C54.4152 38.0557 55.7202 39.9273 55.5407 40.1285C55.3613 40.3296 53.7271 38.9042 50.4452 37.8384C48.9651 37.3562 47.1882 36.9985 45.1039 36.9373C41.6288 36.8294 37.7705 37.5642 33.4856 39.3407C29.8197 40.8701 26.1713 43.0669 22.6851 45.9517C22.493 46.1107 22.3025 46.2708 22.1138 46.4319C18.3083 49.6834 15.3054 53.2739 13.0636 56.9423C11.7056 59.3507 10.7817 61.8303 10.1439 64.1061C9.46047 66.5247 9.08388 68.7921 8.85581 70.6829C8.71633 74.9686 8.49138 77.5113 8.19474 77.5172Z" fill="#713E24"/>
<path d="M26.2698 67.7985C26.1031 67.7849 26.0598 66.3453 26.1266 63.7055C26.3512 61.4437 26.9937 58.0308 28.7661 54.3687C29.5884 52.6752 30.6761 50.9008 32.0926 49.197C33.4973 47.5087 35.2241 45.8972 37.2754 44.5005C39.442 43.0272 41.9196 41.8182 44.6537 40.9278H44.6537C47.7322 39.9256 51.0341 39.3348 54.5185 39.1026C57.6021 38.8893 60.9112 38.9551 64.209 39.668C66.5521 40.1711 68.9331 41.0578 71.0572 42.5128C72.6948 43.641 74.1289 45.1271 75.177 46.9023C75.2018 46.9443 75.2264 46.9865 75.2508 47.0289C76.2073 48.7052 76.7808 50.5473 76.9993 52.3984C77.217 54.2389 77.1047 56.0792 76.7271 57.8275C76.3595 59.5431 75.7377 61.1848 74.8799 62.68C74.089 64.0703 73.0655 65.3431 71.7942 66.3605C71.207 66.8285 70.5576 67.2329 69.8531 67.5463H69.8531C69.1727 67.849 68.4427 68.0514 67.6878 68.1328C66.4092 68.2673 65.1212 68.1676 63.8991 67.8334C62.7528 67.5133 61.7069 67.0096 60.7763 66.4129C59.8241 65.8032 58.9737 65.1114 58.2001 64.4211C57.4213 63.7282 56.6456 62.9761 55.948 62.3276C55.2303 61.663 54.553 61.0567 53.8386 60.5443C53.1485 60.0535 52.4612 59.6548 51.7538 59.428C51.0155 59.1829 50.2276 59.1164 49.4836 59.2114C48.4774 59.3296 47.4837 59.7521 46.5768 60.2471C44.4132 61.4538 42.7512 62.9588 41.5888 64.5729C40.4376 66.1625 39.7706 67.8343 39.3914 69.2464C38.9736 70.805 38.8618 72.1604 38.8148 73.0621C38.7887 73.5678 38.7819 73.9594 38.7685 74.2313C38.7614 74.3724 38.7524 74.4824 38.7391 74.5571C38.7322 74.5955 38.7241 74.6252 38.7145 74.6461C38.7095 74.6565 38.7042 74.6648 38.6986 74.6708C38.689 74.6753 38.6844 74.6781 38.6819 74.6798C38.6797 74.6816 38.6797 74.6822 38.6797 74.6822C38.6797 74.6821 38.6797 74.6822 38.6767 74.6806C38.6738 74.6806 38.6683 74.679 38.6578 74.6788C38.6501 74.6753 38.6421 74.6696 38.6337 74.6612C38.6168 74.6449 38.5986 74.6193 38.579 74.5844C38.5406 74.5158 38.498 74.4124 38.4535 74.273C38.3681 74.0058 38.2766 73.6103 38.207 73.0874C38.0825 72.1528 38.0164 70.7261 38.3062 69.011C38.5686 67.4565 39.1532 65.5769 40.3249 63.7196C41.5163 61.8409 43.2788 60.0459 45.6203 58.6123C46.628 57.9852 47.8254 57.4332 49.1819 57.1968C50.2158 57.025 51.3137 57.0757 52.381 57.3856C53.3706 57.6805 54.2789 58.1518 55.1079 58.7185C55.9633 59.2989 56.737 59.9461 57.4941 60.6149C58.2574 61.2864 58.9997 61.9731 59.7629 62.6187C60.5039 63.2434 61.2692 63.8426 62.0743 64.3287C62.8555 64.7995 63.6879 65.1865 64.5473 65.4016C65.4542 65.6355 66.4305 65.69 67.404 65.5741C67.8668 65.5201 68.3357 65.3782 68.789 65.1719L68.789 65.1719C69.2622 64.9567 69.7177 64.6598 70.1516 64.3089C71.1044 63.5426 71.8955 62.5132 72.5542 61.355C73.2571 60.1063 73.7666 58.7186 74.0708 57.2636C74.3773 55.7833 74.4667 54.2402 74.2791 52.7271C74.0912 51.2146 73.6279 49.7193 72.8662 48.3967C72.8471 48.3633 72.8279 48.3299 72.8085 48.2967C71.988 46.8942 70.826 45.6934 69.4976 44.7661C67.7658 43.549 65.7078 42.7857 63.624 42.3051C60.6757 41.6302 57.6062 41.5442 54.6746 41.6932C51.362 41.8703 48.2573 42.3596 45.3763 43.2298C42.8218 44.0009 40.51 45.047 38.4846 46.3368C36.5672 47.5561 34.9268 48.9765 33.5698 50.4774C32.1994 51.9918 31.1081 53.5949 30.2505 55.1394C28.4052 58.4503 27.5351 61.6674 27.0714 63.8174C26.7126 66.399 26.4366 67.8117 26.27 67.7981L26.2698 67.7985Z" fill="#713E24"/>
<path d="M116.78 107.617C116.676 107.975 113.68 107.454 108.897 106.316C104.516 105.189 98.5176 103.363 92.1423 100.749C91.3916 100.442 90.6337 100.122 89.8718 99.7898C87.5943 98.7967 85.4489 97.7641 83.4158 96.6689C80.5835 95.1456 78.1618 93.6069 76.0344 91.8986C74.9691 91.0433 74.0383 90.1837 73.2249 89.292C72.3879 88.3767 71.7263 87.4691 71.2233 86.5546C70.6591 85.5334 70.3596 84.5713 70.2469 83.7236C70.0096 81.9124 70.5811 80.9828 70.7831 81.0264C70.9851 81.0699 70.8668 82.0376 71.3743 83.4639C71.615 84.1479 71.9933 84.8723 72.5914 85.6884C73.1295 86.4198 73.7906 87.1309 74.6263 87.8928C75.4392 88.6316 76.3486 89.3423 77.4007 90.0793H77.4008C79.517 91.5617 81.8458 92.8892 84.6471 94.3098C86.6477 95.3226 88.7368 96.2941 90.9701 97.2678C91.7153 97.5927 92.4571 97.9094 93.1916 98.2181C99.3469 100.805 105.309 102.952 109.451 104.479H109.451C114.079 106.087 116.885 107.259 116.78 107.617Z" fill="#713E24"/>
<path d="M70.9179 82.781C70.9007 82.6576 72.8486 82.2626 76.5075 81.634C79.5329 80.9884 84.1989 79.8698 89.345 77.8723C91.6336 76.9844 94.1231 75.8808 96.6306 74.498C96.6306 74.4979 96.6306 74.4979 96.6306 74.4979C98.9047 73.2434 101.266 71.7218 103.5 69.8715C105.548 68.1743 107.537 66.161 109.225 63.816C110.848 61.5633 112.207 58.9785 113.12 56.1415C114.708 51.2096 115.64 45.6292 115.172 39.9195C114.81 35.4898 113.604 30.9162 111.309 26.787C109.392 23.3373 106.702 20.1557 103.316 17.842C100.297 15.778 96.6956 14.3947 92.9506 14.1552C89.8673 13.9606 86.7077 14.0983 83.7726 14.9827C81.7094 15.5988 79.7382 16.5997 78.072 17.9794C76.7368 19.0745 75.5772 20.4321 74.5254 21.9173C73.7112 23.0712 72.9547 24.3798 72.0099 25.677C71.2247 26.775 70.0971 27.6863 68.711 28.1663C67.4553 28.5783 66.0877 28.5483 64.8426 28.0695H64.8426C61.7744 26.6942 60.2886 23.508 60.1125 20.5527C59.9152 18.2647 60.4739 16.044 61.4036 14.0975V14.0975C62.5292 11.6985 64.16 9.58526 66.0627 7.79645C66.2783 7.59308 66.4975 7.39358 66.7201 7.19796C68.8309 5.34302 71.2229 3.85878 73.7431 2.74644C77.0746 1.27602 80.624 0.443863 84.1615 0.162195C88.26 -0.165794 92.3426 0.014965 96.3001 0.602183C100.506 1.22339 104.59 2.31276 108.424 3.9262C112.226 5.52182 115.764 7.65751 118.73 10.4249C121.717 13.2129 123.999 16.6553 125.259 20.4244C126.654 24.6261 127.608 28.8656 128.214 33.0244C128.917 37.8387 129.147 42.5551 128.91 47.1157C128.651 52.1032 127.823 56.8327 126.389 61.2153C124.818 66.0196 122.521 70.2657 119.67 73.7817C118.067 75.7536 116.282 77.4644 114.48 78.9443C112.482 80.5866 110.415 81.9901 108.416 83.194C103.848 85.9452 99.2869 87.8853 95.5968 89.2453C91.2404 90.8513 87.5338 91.8509 85.0471 92.4309C82.1809 93.0212 80.6563 93.2813 80.63 93.1746C80.63 93.1746 80.63 93.1746 80.63 93.1746C80.6299 93.1746 80.6299 93.1746 80.6299 93.1746C80.63 93.1746 80.63 93.1747 80.6299 93.1746C80.609 93.0666 82.0873 92.5977 84.8884 91.8122C87.2943 91.0695 90.9544 89.8903 95.1748 88.1598C98.7659 86.6871 103.208 84.6433 107.59 81.8568C109.508 80.6369 111.48 79.2331 113.367 77.6156C115.066 76.1575 116.736 74.4967 118.207 72.6142C120.849 69.2439 122.956 65.177 124.394 60.5767C125.708 56.3732 126.439 51.827 126.638 47.0102C126.818 42.6048 126.547 38.046 125.824 33.3848C125.199 29.3571 124.244 25.2651 122.87 21.2291C121.744 17.9022 119.665 14.8325 116.963 12.3276C114.261 9.81998 110.972 7.87243 107.398 6.3788C103.789 4.87476 99.9166 3.86174 95.9083 3.27875C92.1346 2.73255 88.2559 2.56895 84.3823 2.88778C81.1224 3.15763 77.8696 3.92023 74.8541 5.25973C72.5711 6.27379 70.4137 7.60947 68.5342 9.26391C68.336 9.43838 68.1411 9.6162 67.9497 9.79733C66.2621 11.3997 64.8315 13.2324 63.8915 15.2604C63.1401 16.9169 62.6597 18.6603 62.8389 20.2909C63.1683 22.5947 64.0591 25.0189 65.8312 25.5295H65.8312C66.4617 25.7815 67.216 25.7993 67.86 25.5845C68.6071 25.3607 69.2923 24.7768 69.826 24.0751C70.6634 22.9404 71.4163 21.6446 72.3266 20.3605C73.476 18.7339 74.8047 17.2057 76.3759 15.9129C78.3558 14.297 80.6439 13.1419 83.0261 12.4475C86.3832 11.477 89.8465 11.3263 93.1288 11.571C97.3914 11.8841 101.405 13.4477 104.742 15.7761C108.472 18.3801 111.379 21.8682 113.416 25.6309C115.853 30.1319 117.095 35.0337 117.419 39.7512C117.835 45.8287 116.784 51.6679 115.044 56.78C114.012 59.8179 112.513 62.5584 110.739 64.93C108.893 67.3945 106.758 69.4751 104.577 71.2038C102.201 73.0877 99.7203 74.6073 97.3463 75.8385C97.3463 75.8385 97.3463 75.8385 97.3463 75.8385C94.7288 77.1963 92.1527 78.253 89.7921 79.0839C84.4588 80.9603 79.7247 81.8822 76.6216 82.3461C72.9169 82.7494 70.9352 82.9051 70.9179 82.7816V82.781Z" fill="#713E24"/>
<path d="M72.2669 63.7493C72.3049 63.3959 75.6657 63.4314 81.1006 63.7724C83.5658 63.6427 86.4808 63.2952 89.5681 62.4611C92.616 61.6463 95.8482 60.3542 98.9361 58.4112C100.401 57.4905 101.804 56.3911 103.098 55.1222C104.289 53.954 105.338 52.6905 106.237 51.3674C108.156 48.5509 109.409 45.4666 110.212 42.5608C111.159 39.1225 111.5 35.846 111.603 33.15C111.807 27.7484 111.172 24.4161 111.52 24.3359C111.867 24.2557 113.17 27.5044 113.455 33.1364C113.599 35.9547 113.455 39.426 112.591 43.1623C111.862 46.3251 110.582 49.7165 108.494 52.8814C107.509 54.3694 106.349 55.7848 105.022 57.0864C103.58 58.5002 102.009 59.7139 100.363 60.7188C96.9687 62.7877 93.4408 64.0819 90.1373 64.8089C86.7423 65.5483 83.6084 65.7125 81.0081 65.6159C75.5264 64.7828 72.2289 64.103 72.2669 63.7493Z" fill="#713E24"/>
<path d="M75.5051 52.5464C75.5072 52.5389 75.5101 52.5317 75.5139 52.5247C75.5182 52.518 75.5236 52.5115 75.5301 52.5055C75.5431 52.4935 75.5605 52.4826 75.5822 52.473C75.6251 52.4538 75.6851 52.4391 75.7613 52.4287C75.9114 52.4082 76.1275 52.4035 76.4021 52.4108C76.9284 52.4249 77.7097 52.485 78.6646 52.5525C80.4158 52.6759 83.0002 52.8484 85.9169 52.7041C88.5091 52.5721 91.5812 52.193 94.5282 51.1128C95.898 50.6128 97.2623 49.9593 98.5254 49.1143C98.8585 48.892 99.1855 48.6559 99.505 48.4063C100.427 47.6865 101.252 46.8815 101.967 46.0174C106.184 40.9099 108.626 36.4646 110.254 32.637C110.999 30.885 111.418 29.6562 111.777 28.6263C111.939 28.1625 112.076 27.7806 112.182 27.5408C112.237 27.4177 112.287 27.3233 112.333 27.2613C112.356 27.2302 112.378 27.2069 112.4 27.1917C112.411 27.1842 112.421 27.1786 112.432 27.175C112.462 27.1728 112.464 27.1706 112.464 27.1704C112.464 27.1704 112.464 27.1704 112.464 27.1704C112.464 27.1706 112.465 27.1728 112.495 27.1791C112.505 27.1842 112.514 27.1915 112.524 27.2011C112.543 27.2201 112.561 27.2476 112.578 27.2837C112.612 27.3561 112.641 27.4616 112.664 27.6001C112.709 27.8792 112.727 28.2805 112.702 28.8033C112.652 29.8735 112.431 31.3567 111.906 33.2171C110.743 37.3357 108.374 42.3889 104.076 47.7368C103.246 48.7707 102.281 49.7274 101.197 50.5747C100.821 50.8684 100.435 51.145 100.042 51.4043C98.5518 52.3851 96.9738 53.1137 95.4065 53.6369C92.0317 54.759 88.6969 55.004 85.9365 54.9189C82.8174 54.827 80.2076 54.3244 78.4437 53.844C77.4814 53.5821 76.7432 53.3189 76.2437 53.0919C75.9872 52.9752 75.796 52.8691 75.6712 52.7769C75.6081 52.7303 75.5625 52.6876 75.5344 52.6491C75.5204 52.6297 75.5108 52.6115 75.5057 52.5944C75.5032 52.5859 75.5018 52.5776 75.5015 52.5696C75.5018 52.5616 75.5031 52.5539 75.5051 52.5464L75.5051 52.5464Z" fill="#713E24"/>
<path d="M12.1739 112.139C12.1667 112.137 12.1599 112.134 12.1532 112.13C12.1468 112.126 12.1409 112.121 12.1352 112.115C12.1238 112.103 12.1136 112.088 12.1048 112.069C12.0874 112.032 12.0755 111.98 12.0699 111.914C12.059 111.786 12.0728 111.607 12.1218 111.381C12.2136 110.959 12.4332 110.36 12.8684 109.691C13.7375 108.37 15.4551 106.835 18.1546 106.128C19.2428 105.833 20.3856 105.602 21.6315 105.404C22.4588 105.271 23.3602 105.155 24.1304 104.973C24.7482 104.822 25.3423 104.627 25.81 104.32C26.347 103.996 26.8272 103.486 27.2938 102.88C27.7261 102.297 28.1075 101.685 28.3581 101.048C28.5343 100.622 28.6569 100.129 28.7815 99.5817C28.8184 99.4042 28.8596 99.2133 28.9098 99.0118C28.9958 98.6665 29.1074 98.2929 29.2681 97.8989C29.5933 97.157 30.055 96.5346 30.5811 96.0386C31.3431 95.257 32.3625 94.556 33.6485 94.239C33.9648 94.1661 34.3248 94.137 34.7179 94.1694C34.8222 94.1783 34.941 94.1972 35.0732 94.2276C35.0732 94.2276 35.0732 94.2276 35.0732 94.2276C35.1577 94.2585 35.2496 94.2927 35.3486 94.3303C35.3486 94.3303 35.3486 94.3303 35.3486 94.3303C35.3528 94.3319 35.3571 94.3331 35.3613 94.3347C35.3629 94.3347 35.3643 94.3363 35.3659 94.3365C36.1496 94.8165 36.9124 95.2872 37.6515 95.7465C38.3114 96.3019 38.883 96.995 39.2842 97.8117C39.7227 98.7953 39.7797 99.8459 39.5387 100.787C39.2679 101.838 38.6167 102.69 37.7877 103.227C36.9745 103.732 36.0964 103.924 35.3041 103.909C34.5277 103.92 33.7584 103.701 33.1201 103.267C32.8232 103.069 32.5691 102.777 32.3927 102.42C32.2149 102.017 32.1972 101.613 32.2881 101.258C32.6043 100.096 33.3204 99.3864 33.8624 99.0516C34.1646 98.867 34.4322 98.778 34.6208 98.7466C34.7239 98.7295 34.8067 98.7285 34.8674 98.7399C34.8996 98.7455 34.9252 98.7545 34.9445 98.7664C34.9603 98.7899 34.97 98.8015 34.9758 98.8073C34.9814 98.8129 34.9833 98.8127 34.9836 98.8127C34.9836 98.8127 34.9836 98.8127 34.9836 98.8127C34.9836 98.8127 34.9836 98.8127 34.9836 98.8127C34.9836 98.8128 34.9818 98.8143 34.9812 98.8218C34.9812 98.83 34.9812 98.8452 34.9844 98.8735C34.9794 98.8947 34.9698 98.9184 34.956 98.9438C34.9282 98.993 34.8823 99.0531 34.8233 99.1227C34.7136 99.2525 34.5545 99.4241 34.3837 99.6512H34.3837C34.0768 100.058 33.7359 100.687 33.673 101.522C33.6809 101.602 33.7092 101.685 33.754 101.711C33.7898 101.761 33.8837 101.808 34.0035 101.874C34.308 102.038 34.7306 102.055 35.2354 102.02C35.7205 101.958 36.2265 101.79 36.5968 101.485C36.9478 101.215 37.2161 100.758 37.2959 100.274C37.3759 99.8103 37.3076 99.2859 37.0758 98.8726C36.9059 98.4988 36.5801 98.1551 36.1768 97.8182C35.5637 97.4672 34.9394 97.1066 34.3047 96.7366C34.3031 96.7366 34.3022 96.7366 34.3009 96.735C34.2974 96.7334 34.2938 96.7331 34.2905 96.7321C34.3599 96.7608 34.4218 96.7873 34.4762 96.8112C34.4762 96.8112 34.4762 96.8112 34.4762 96.8112C34.4942 96.8152 34.4965 96.8176 34.4837 96.8162C34.436 96.8094 34.3488 96.8277 34.2281 96.8519C33.682 96.9415 33.1246 97.4245 32.48 98.0035C32.1802 98.3063 31.9294 98.6334 31.7971 98.9713C31.7118 99.1577 31.6487 99.3908 31.5837 99.6644C31.5428 99.8368 31.5048 100.008 31.4638 100.18C31.3297 100.792 31.1559 101.433 30.8903 102.086C30.5029 103.007 29.9884 103.819 29.4276 104.525C28.8169 105.317 28.0612 106.032 27.1471 106.571C26.3044 107.044 25.4379 107.305 24.6324 107.443C23.6736 107.612 22.7248 107.681 21.9255 107.752C20.7112 107.862 19.6382 107.986 18.6032 108.16C16.3064 108.556 14.7786 109.503 13.7932 110.447C13.295 110.92 12.9569 111.344 12.7068 111.653C12.5776 111.813 12.4697 111.943 12.3864 112.025C12.3428 112.068 12.3034 112.1 12.269 112.119C12.2514 112.129 12.2348 112.136 12.2192 112.139C12.2114 112.14 12.2037 112.141 12.1964 112.141C12.1887 112.141 12.1814 112.14 12.174 112.138L12.1739 112.139Z" fill="#713E24"/>
<path d="M23.2993 86.4526C23.3039 86.4602 23.3283 86.507 23.3293 86.5192C23.3334 86.5364 23.3363 86.5571 23.336 86.5792C23.336 86.6217 23.3277 86.6753 23.3108 86.7361C23.2783 86.854 23.2143 87.0103 23.1216 87.1938C22.945 87.5439 22.6534 88.022 22.2701 88.5843C21.5917 89.5801 20.5616 90.9387 19.2956 92.4344C18.3419 93.5626 17.1557 94.8999 15.8156 96.1675C15.3723 96.5896 14.869 97.0418 14.2865 97.4636C14.0922 97.6068 13.8539 97.7615 13.5637 97.9091C13.4108 98.0175 13.0932 98.122 12.6068 98.1725C12.0069 98.1592 11.5231 98.005 11.1846 97.7646C10.7741 97.4998 10.4504 97.193 10.2084 96.8762C10.0476 96.6735 9.90254 96.4596 9.77394 96.2364C9.43802 95.6532 9.2225 95.0194 9.12881 94.3731C8.96051 93.3611 9.16739 92.2911 9.75642 91.3648C10.6384 90.1816 11.8429 89.6205 12.9096 89.4546C14.6488 89.1207 16.1918 88.9405 17.5071 88.6998C17.9327 88.6226 18.3057 88.537 18.6491 88.4206C19.0774 88.279 19.5215 88.0676 19.9096 87.8786C20.8735 87.4012 21.5991 87.0282 22.0966 86.7941C22.3086 86.6942 22.4918 86.6196 22.6147 86.5862C22.6747 86.5699 22.7271 86.5624 22.7689 86.5636C22.7889 86.5652 22.8077 86.5677 22.8242 86.5727C22.8647 86.5967 22.8696 86.5959 22.87 86.5957C22.8701 86.5957 22.8701 86.5957 22.8701 86.5957C22.8701 86.5957 22.8701 86.5957 22.8701 86.5957C22.8699 86.5957 22.8701 86.6012 22.9019 86.6358C22.9095 86.652 22.9141 86.6709 22.9159 86.693C22.9205 86.738 22.9131 86.7932 22.8943 86.859C22.8539 87.0003 22.7609 87.1787 22.611 87.3937C22.2576 87.9008 21.6714 88.5024 20.7753 89.226C20.4117 89.5211 19.9602 89.8543 19.4248 90.1469C18.987 90.3818 18.5203 90.573 18.0273 90.7312C16.4668 91.2409 15.2664 91.4775 13.4682 91.9449C12.8162 92.1647 12.1668 92.4352 12.0014 92.8428C11.8192 93.0895 11.7829 93.5232 11.8361 93.958C11.8896 94.2729 11.9987 94.5873 12.1576 94.8661C12.2185 94.973 12.2863 95.0737 12.3602 95.1667C12.4766 95.3018 12.5654 95.4032 12.6373 95.4403C12.6938 95.4485 12.6704 95.4704 12.5311 95.4438C12.3283 95.4862 12.2753 95.4763 12.3758 95.462C12.4689 95.4233 12.589 95.3451 12.7398 95.2472C13.1768 94.9565 13.6149 94.5883 14.057 94.2127C15.3213 93.1324 16.6511 91.8615 17.6814 90.898C19.1338 89.539 20.2871 88.4736 21.2569 87.6644C21.7849 87.224 22.2157 86.8949 22.5587 86.6796C22.7366 86.5682 22.8839 86.4906 23.0059 86.4477C23.0684 86.426 23.1219 86.4128 23.1688 86.4103C23.1932 86.4087 23.2147 86.4103 23.2346 86.414C23.2589 86.4223 23.2871 86.4322 23.2993 86.4526L23.2993 86.4526Z" fill="#713E24"/>
</svg>
